<svg xmlns="http://www.w3.org/2000/svg" viewBox="0 0 86.43 92.8875" x="0px" y="0px"><defs><style>.cls-1{fill:#1d1d1b;}</style></defs><title>5 Sinne</title><g data-name="Ebene 2"><g data-name="Ebene 1"><path class="cls-1" d="M86.2,25a21.18,21.18,0,0,0-36.32,0,1.6,1.6,0,0,0,0,1.66,21.18,21.18,0,0,0,36.33,0A1.6,1.6,0,0,0,86.2,25ZM68,34.88a19,19,0,0,1-16.22-9,19.12,19.12,0,0,1,6.28-6.24,10.07,10.07,0,1,0,19.89,0,19.11,19.11,0,0,1,6.28,6.24A19,19,0,0,1,68,34.88Z"/><path class="cls-1" d="M80.86,14.08a1,1,0,0,0,.74-.31l4.46-4.46a1,1,0,0,0-1.48-1.48L80.12,12.3a1,1,0,0,0,.74,1.78Z"/><path class="cls-1" d="M54.48,13.78A1,1,0,1,0,56,12.3L51.5,7.84A1,1,0,0,0,50,9.32Z"/><path class="cls-1" d="M68,10.59a1,1,0,0,0,1-1V3.24a1,1,0,1,0-2.09,0v6.3A1,1,0,0,0,68,10.59Z"/><path class="cls-1" d="M51.4,43.12H37.19l6.46-29.5a1,1,0,0,0-2-.45L34.87,43.94a.62.62,0,0,1,0,.22s0,.06,0,.09a1.13,1.13,0,0,0,.11.39,1.17,1.17,0,0,0,.25.31l.16.11.19.08.09,0,.22,0H51.4a1,1,0,1,0,0-2.09Z"/><circle class="cls-1" cx="41.92" cy="40.62" r="1.24"/><circle class="cls-1" cx="46.7" cy="40.62" r="1.24"/><path class="cls-1" d="M39.42,49.29a1,1,0,1,0-.55,2A2.68,2.68,0,0,1,40.7,53c.27.81.3,1.94-2,3.53-2.52,1.79-3.44,3.78-2.72,5.9a4.73,4.73,0,0,0,3,3,1,1,0,0,0,.67-2A2.66,2.66,0,0,1,38,61.79c-.27-.81-.3-1.94,2-3.53,2.52-1.79,3.44-3.78,2.72-5.9A4.76,4.76,0,0,0,39.42,49.29Z"/><path class="cls-1" d="M47.9,49.29a1,1,0,1,0-.55,2A2.68,2.68,0,0,1,49.17,53c.27.81.3,1.94-2,3.53-2.52,1.79-3.44,3.78-2.72,5.9a4.73,4.73,0,0,0,3,3,1,1,0,0,0,.67-2,2.66,2.66,0,0,1-1.68-1.68c-.27-.81-.3-1.94,2-3.53,2.52-1.79,3.44-3.78,2.72-5.9A4.76,4.76,0,0,0,47.9,49.29Z"/><path class="cls-1" d="M23.83.22a13.07,13.07,0,0,0-5,23.64c1.57,1,1.46,2.15.61,4.4-1.09,2.89-.55,5.52,1.42,6.88a5.11,5.11,0,0,0,7.1-1.3,1,1,0,1,0-1.72-1.19,3,3,0,0,1-4.2.77c-1.71-1.18-.93-3.68-.65-4.42.64-1.7,1.83-4.85-1.42-6.88A11,11,0,0,1,32.42,4a1,1,0,1,0,1.19-1.72A13,13,0,0,0,23.83.22Z"/><path class="cls-1" d="M28.21,17.33A2.33,2.33,0,0,1,30,17.21a1,1,0,1,0,.67-2,4.42,4.42,0,1,0-2.84,8.38,1,1,0,1,0,.67-2,2.34,2.34,0,0,1-.29-4.31Z"/><path class="cls-1" d="M4.7,20.27A12.8,12.8,0,0,1,9.08,37.81a1,1,0,1,0,1.79,1.07,14.89,14.89,0,0,0-5.1-20.41A1,1,0,0,0,4.7,20.27Z"/><path class="cls-1" d="M4.64,29.6a6.68,6.68,0,0,0-3.06-4.14A1,1,0,0,0,.51,27.25,4.61,4.61,0,0,1,2.62,30.1a4.6,4.6,0,0,1-.52,3.51,1,1,0,1,0,1.79,1.07A6.68,6.68,0,0,0,4.64,29.6Z"/><path class="cls-1" d="M68.22,43.4a7.46,7.46,0,0,0-7.46,7.46V73.27a1,1,0,0,0,2.09,0V50.86a5.37,5.37,0,0,1,10.74,0V73.27a1,1,0,0,0,2.09,0V50.86A7.46,7.46,0,0,0,68.22,43.4Z"/><path class="cls-1" d="M68.7,46.8a1,1,0,0,0,0,2.09,1.49,1.49,0,0,1,1.49,1.49v3.36a1,1,0,1,0,2.09,0V50.37A3.58,3.58,0,0,0,68.7,46.8Z"/><path class="cls-1" d="M68.56,56.58a2.67,2.67,0,0,1-2.67-2.67,1,1,0,0,0-2.09,0,4.76,4.76,0,0,0,4.75,4.75,1,1,0,0,0,0-2.09Z"/><path class="cls-1" d="M69.26,54.09V51.37a1,1,0,0,0-2.09,0v2.72a1,1,0,0,0,2.09,0Z"/><path class="cls-1" d="M32,49.43a1,1,0,0,0-.44-.09h0a8.49,8.49,0,0,1-7.64-4.83h0A2.94,2.94,0,0,0,22,42.92a2.89,2.89,0,0,0-2.36.35,2.9,2.9,0,0,1-3.08,0,2.91,2.91,0,0,0-2.36-.35,3,3,0,0,0-1.85,1.57,8.49,8.49,0,0,1-7.63,4.83h0a1,1,0,0,0-.44.09,1,1,0,0,0-.5,1.39,15.83,15.83,0,0,0,28.66,0A1,1,0,0,0,32,49.43Zm-17.69-4a.85.85,0,0,1,.54-.46.81.81,0,0,1,.66.1,5,5,0,0,0,5.33,0,.79.79,0,0,1,.66-.1.85.85,0,0,1,.54.46,10.55,10.55,0,0,0,4.37,4.67,72.8,72.8,0,0,1-8.23.55,72.8,72.8,0,0,1-8.23-.55A10.56,10.56,0,0,0,14.28,45.4Zm3.86,12.43a13.8,13.8,0,0,1-11.4-6.09,83.13,83.13,0,0,0,11.4,1,83.14,83.14,0,0,0,11.4-1A13.8,13.8,0,0,1,18.14,57.83Z"/><path class="cls-1" d="M85,41.57a1,1,0,0,0-1.48,0l-3.32,3.32a1,1,0,0,0,0,1.48L82.8,49l-2.58,2.59a1,1,0,0,0,0,1.48L82.8,55.6l-2.58,2.58a1,1,0,0,0,0,1.48L83.54,63A1,1,0,0,0,85,61.51l-2.58-2.59L85,56.34a1,1,0,0,0,0-1.48l-2.58-2.59L85,49.69a1,1,0,0,0,0-1.48l-2.58-2.58L85,43A1,1,0,0,0,85,41.57Z"/></g></g></svg>
