<?xml version="1.0" encoding="utf-8"?>
<!-- Generator: Adobe Illustrator 16.0.0, SVG Export Plug-In . SVG Version: 6.00 Build 0)  -->
<!DOCTYPE svg PUBLIC "-//W3C//DTD SVG 1.1//EN" "http://www.w3.org/Graphics/SVG/1.1/DTD/svg11.dtd">
<svg version="1.1" id="Layer_1" xmlns="http://www.w3.org/2000/svg" xmlns:xlink="http://www.w3.org/1999/xlink" x="0px" y="0px"
	 width="1190.672px" height="311.479px" viewBox="0 0 1190.672 311.479" enable-background="new 0 0 1190.672 311.479"
	 xml:space="preserve">
<g>
	<defs>
		<rect id="SVGID_1_" x="6" y="5" width="1184.672" height="306.479"/>
	</defs>
	<clipPath id="SVGID_2_">
		<use xlink:href="#SVGID_1_"  overflow="visible"/>
	</clipPath>
	<path clip-path="url(#SVGID_2_)" fill="#05757B" d="M166.369,99.361c3.062,3.15,4.59,7.063,4.59,11.743v57.232
		c0,6.305-2.795,11.167-8.37,14.585c-17.643,10.981-36.988,16.466-58.044,16.466c-17.819,0-34.288-4.363-49.409-13.092
		c-15.119-8.73-27.088-20.52-35.906-35.37C10.409,136.077,6,119.838,6,102.196c0-17.639,4.409-33.884,13.229-48.734
		c8.818-14.845,20.787-26.633,35.906-35.365c15.122-8.729,31.59-13.092,49.409-13.092c17.82,0,33.292,3.603,46.438,10.796
		c2.7,1.444,4.725,3.334,6.072,5.67c1.354,2.342,2.027,4.861,2.027,7.56c0,4.5-1.488,8.416-4.454,11.743
		c-2.972,3.332-6.617,4.997-10.939,4.997c-2.698,0-5.666-0.72-8.907-2.162c-9.716-4.137-19.8-6.206-30.236-6.206
		c-11.521,0-22.138,2.923-31.859,8.77C62.969,52.022,55.272,59.9,49.603,69.798c-5.672,9.897-8.507,20.701-8.507,32.398
		c0,11.704,2.835,22.5,8.507,32.397c5.67,9.898,13.366,17.775,23.083,23.622c9.721,5.851,20.338,8.779,31.859,8.779
		c5.036,0,10.437-0.451,16.197-1.352c5.756-0.901,10.803-2.066,15.119-3.51v-35.098h-25.379c-4.681,0-8.595-1.528-11.744-4.59
		c-3.15-3.06-4.725-6.926-4.725-11.607s1.574-8.551,4.725-11.611c3.148-3.063,7.063-4.59,11.744-4.59h44.28
		C159.438,94.636,163.309,96.214,166.369,99.361"/>
	<path clip-path="url(#SVGID_2_)" fill="#05757B" d="M357.108,175.9c1.354,2.34,2.027,4.773,2.027,7.29
		c0,3.241-1.082,6.208-3.239,8.911c-2.698,3.236-6.84,4.857-12.419,4.857c-4.318,0-8.279-0.989-11.88-2.967
		c-12.958-7.378-19.438-22.409-19.438-45.09c0-6.48-2.115-11.607-6.343-15.387c-4.232-3.78-10.306-5.669-18.224-5.669h-50.489
		v52.378c0,4.857-1.307,8.823-3.915,11.878c-2.609,3.06-6.074,4.588-10.396,4.588c-5.222,0-9.761-1.572-13.631-4.725
		c-3.87-3.148-5.807-7.061-5.807-11.741V24.17c0-4.676,1.579-8.595,4.725-11.743c3.148-3.146,7.063-4.725,11.748-4.725h77.753
		c9.357,0,18.177,2.523,26.457,7.56c8.279,5.042,14.89,11.971,19.846,20.787c4.946,8.822,7.425,18.725,7.425,29.698
		c0,9.003-2.433,17.78-7.291,26.326c-4.859,8.549-11.163,15.347-18.899,20.383c11.339,7.921,17.548,18.539,18.627,31.854
		c0.539,2.881,0.81,5.67,0.81,8.37c0.72,5.579,1.438,9.586,2.162,12.017c0.715,2.429,2.338,4.274,4.855,5.533
		C353.911,171.674,355.761,173.564,357.108,175.9 M305.679,95.446c3.062-3.063,5.575-7.153,7.562-12.287
		c1.98-5.126,2.97-10.662,2.97-16.603c0-5.036-0.989-9.672-2.97-13.905c-1.987-4.228-4.5-7.6-7.562-10.123
		c-3.06-2.519-6.208-3.78-9.45-3.78h-59.126v61.285h59.126C299.47,100.034,302.619,98.506,305.679,95.446"/>
	<path clip-path="url(#SVGID_2_)" fill="#05757B" d="M530.304,33.89L427.71,165.642h86.125c4.859,0,8.816,1.391,11.878,4.182
		c3.056,2.795,4.59,6.531,4.59,11.203c0,4.504-1.579,8.235-4.728,11.207c-3.15,2.972-7.067,4.451-11.741,4.451H395.314
		c-4.685,0-8.736-1.616-12.15-4.853c-3.424-3.246-5.133-6.928-5.133-11.074c0-3.414,1.256-6.836,3.78-10.258L484.138,38.751h-78.027
		c-4.859,0-8.82-1.437-11.878-4.323c-3.06-2.877-4.59-6.657-4.59-11.337c0-4.497,1.57-8.187,4.727-11.068
		c3.146-2.881,7.056-4.323,11.741-4.323h110.423c4.318,0,8.326,1.535,12.015,4.59c3.685,3.065,5.535,6.845,5.535,11.34
		C534.083,27.052,532.821,30.472,530.304,33.89"/>
	<path clip-path="url(#SVGID_2_)" fill="#FED208" d="M667.989,15.933c8.275,5.493,14.943,12.874,19.985,22.138
		c5.034,9.275,7.556,19.398,7.556,30.377c0,10.796-2.521,20.879-7.556,30.234c-5.042,9.365-11.71,16.786-19.985,22.275
		c-8.274,5.493-17,8.233-26.185,8.233h-46.977v51.027c0,4.862-1.443,8.823-4.323,11.878c-2.881,3.069-6.661,4.588-11.337,4.588
		c-4.504,0-8.193-1.568-11.072-4.725c-2.876-3.144-4.318-7.056-4.318-11.741V24.173c0-4.681,1.574-8.597,4.725-11.748
		c3.146-3.146,7.063-4.725,11.744-4.725h61.559C650.989,7.7,659.714,10.449,667.989,15.933 M651.925,94.095
		c3.33-2.877,6.032-6.615,8.098-11.205c2.076-4.59,3.109-9.401,3.109-14.441c0-5.038-1.033-9.858-3.109-14.448
		c-2.066-4.588-4.769-8.275-8.098-11.068c-3.33-2.786-6.703-4.184-10.121-4.184h-46.977v59.665h46.977
		C645.222,98.414,648.595,96.974,651.925,94.095"/>
	<path clip-path="url(#SVGID_2_)" fill="#FED208" d="M842.532,169.555c3.148,2.972,4.725,6.8,4.725,11.476
		c0,4.5-1.576,8.235-4.725,11.207c-3.153,2.963-7.061,4.456-11.741,4.456h-87.744c-4.689,0-8.602-1.577-11.745-4.729
		c-3.153-3.148-4.725-7.061-4.725-11.746V24.17c0-4.674,1.616-8.595,4.862-11.743c3.236-3.146,7.374-4.725,12.412-4.725
		c4.504,0,8.372,1.578,11.613,4.725c3.241,3.148,4.862,7.069,4.862,11.743v140.933h70.465
		C835.471,165.104,839.379,166.587,842.532,169.555"/>
	<path clip-path="url(#SVGID_2_)" fill="#FED208" d="M1018.426,12.021c2.879,3.06,4.319,7.017,4.319,11.878v97.737
		c0,14.938-3.145,28.169-9.45,39.686c-6.297,11.519-15.115,20.518-26.45,27c-11.344,6.478-24.304,9.714-38.884,9.714
		c-14.576,0-27.585-3.237-39.008-9.714c-11.433-6.482-20.295-15.481-26.591-27c-6.306-11.516-9.454-24.748-9.454-39.686V23.899
		c0-4.681,1.621-8.59,4.862-11.741c3.236-3.148,7.374-4.725,12.417-4.725c4.323,0,8.103,1.576,11.339,4.725
		c3.241,3.151,4.862,7.061,4.862,11.741v97.737c0,8.637,1.89,16.331,5.67,23.083c3.78,6.745,8.862,11.922,15.251,15.523
		c6.39,3.604,13.27,5.4,20.652,5.4c7.736,0,14.987-1.797,21.738-5.4c6.747-3.601,12.147-8.778,16.197-15.523
		c4.049-6.752,6.076-14.446,6.076-23.083V23.899c0-4.861,1.347-8.818,4.049-11.878c2.703-3.06,6.385-4.588,11.075-4.588
		C1011.763,7.433,1015.547,8.961,1018.426,12.021"/>
	<path clip-path="url(#SVGID_2_)" fill="#FED208" d="M1086.732,194.53c-10.081-3.241-19.531-8.73-28.344-16.471
		c-4.862-4.323-7.295-9.087-7.295-14.311c0-4.138,1.528-7.781,4.592-10.934c3.056-3.146,6.747-4.725,11.07-4.725
		c3.413,0,6.478,1.082,9.176,3.241c7.197,5.939,14.223,10.262,21.059,12.96c6.84,2.703,14.938,4.045,24.304,4.045
		c10.072,0,18.758-2.243,26.048-6.743c7.291-4.5,10.938-10.081,10.938-16.74c0-8.103-3.607-14.448-10.801-19.036
		c-7.206-4.59-18.629-8.05-34.292-10.397c-39.414-5.756-59.121-24.112-59.121-55.072c0-11.341,2.972-21.193,8.906-29.563
		c5.943-8.37,14.042-14.759,24.299-19.17c10.258-4.405,21.686-6.612,34.288-6.612c11.34,0,22.003,1.715,31.992,5.128
		c9.988,3.422,18.312,7.922,24.979,13.501c5.215,4.142,7.825,8.909,7.825,14.307c0,4.142-1.532,7.787-4.592,10.934
		c-3.064,3.15-6.659,4.725-10.801,4.725c-2.694,0-5.126-0.81-7.286-2.429c-4.68-3.78-11.207-7.244-19.57-10.395
		c-8.373-3.146-15.888-4.725-22.547-4.725c-11.339,0-20.118,2.12-26.317,6.343c-6.208,4.232-9.321,9.767-9.321,16.603
		c0,7.745,3.197,13.594,9.586,17.55c6.385,3.965,16.422,7.202,30.106,9.721c15.473,2.698,27.845,6.167,37.118,10.395
		c9.269,4.232,16.245,9.988,20.921,17.278c4.681,7.288,7.021,16.965,7.021,29.024c0,11.339-3.192,21.284-9.586,29.828
		c-6.389,8.553-14.89,15.124-25.509,19.712c-10.624,4.588-22.052,6.884-34.283,6.884
		C1108.329,199.387,1096.804,197.771,1086.732,194.53"/>
	<path clip-path="url(#SVGID_2_)" fill="#717070" d="M17.107,296.262c-2.631-1.135-5.182-2.919-7.641-5.33
		c-0.57-0.477-0.859-1.042-0.859-1.705c0-0.574,0.232-1.095,0.678-1.567c0.453-0.473,0.963-0.711,1.528-0.711
		c0.572,0,1.095,0.238,1.565,0.711c3.698,4.08,8.319,6.116,13.863,6.116c3.416,0,6.246-0.804,8.496-2.42
		c2.252-1.612,3.378-3.718,3.378-6.328c0-2.036-0.557-3.731-1.671-5.083c-1.113-1.351-2.57-2.451-4.369-3.303
		c-1.804-0.857-4.1-1.731-6.895-2.632c-3.038-0.901-5.584-1.899-7.646-2.985c-2.062-1.091-3.731-2.552-5.01-4.372
		c-1.285-1.828-1.923-4.138-1.923-6.937c0-2.513,0.678-4.734,2.027-6.681c1.351-1.943,3.246-3.471,5.688-4.588
		c2.442-1.113,5.25-1.669,8.425-1.669c2.893,0,5.606,0.486,8.143,1.457c2.533,0.972,4.557,2.362,6.078,4.16
		c0.709,0.804,1.066,1.493,1.066,2.062c0,0.525-0.236,1.002-0.711,1.458c-0.475,0.45-0.993,0.671-1.563,0.671
		c-0.475,0-0.879-0.159-1.208-0.495c-1.281-1.519-2.99-2.751-5.125-3.696c-2.128-0.945-4.358-1.426-6.681-1.426
		c-3.459,0-6.281,0.777-8.46,2.318c-2.179,1.537-3.27,3.638-3.27,6.288c0,2.751,1.04,4.862,3.128,6.332
		c2.084,1.462,5.069,2.813,8.957,4.045c3.365,1.002,6.114,2.018,8.249,3.06c2.135,1.046,3.875,2.526,5.226,4.442
		c1.349,1.921,2.022,4.442,2.022,7.573c0,2.42-0.698,4.614-2.093,6.575c-1.397,1.97-3.342,3.524-5.829,4.659
		c-2.493,1.139-5.323,1.709-8.5,1.709C22.76,297.971,19.735,297.401,17.107,296.262"/>
	<path clip-path="url(#SVGID_2_)" fill="#717070" d="M81.59,261.568c0.402,0.424,0.605,0.949,0.605,1.563v31.992
		c0,0.623-0.203,1.126-0.605,1.532s-0.91,0.601-1.523,0.601c-0.621,0-1.13-0.194-1.535-0.601c-0.402-0.406-0.605-0.91-0.605-1.532
		v-4.765c-1.186,2.133-2.963,3.939-5.332,5.405c-2.369,1.466-4.95,2.208-7.745,2.208c-3.18,0-6.037-0.83-8.569-2.49
		c-2.537-1.661-4.526-3.935-5.972-6.822c-1.448-2.893-2.17-6.143-2.17-9.741c0-3.603,0.737-6.835,2.206-9.71
		c1.466-2.861,3.473-5.104,6.01-6.716c2.533-1.612,5.341-2.416,8.423-2.416c2.846,0,5.449,0.685,7.818,2.058
		c2.369,1.378,4.146,3.184,5.332,5.409v-4.411c0-0.614,0.203-1.139,0.605-1.563c0.404-0.424,0.914-0.636,1.535-0.636
		C80.68,260.933,81.188,261.145,81.59,261.568 M71.921,292.032c1.967-1.303,3.508-3.104,4.621-5.405
		c1.113-2.296,1.674-4.866,1.674-7.71c0-2.751-0.561-5.264-1.674-7.542c-1.113-2.274-2.654-4.058-4.621-5.365
		c-1.967-1.298-4.182-1.952-6.646-1.952c-2.466,0-4.681,0.641-6.647,1.917c-1.972,1.281-3.513,3.051-4.621,5.299
		c-1.117,2.252-1.674,4.8-1.674,7.644s0.548,5.414,1.638,7.71c1.089,2.3,2.617,4.102,4.583,5.405
		c1.967,1.307,4.206,1.956,6.721,1.956C67.74,293.988,69.955,293.339,71.921,292.032"/>
	<path clip-path="url(#SVGID_2_)" fill="#717070" d="M142.945,264.589c2.014,2.631,3.021,6.102,3.021,10.417v20.122
		c0,0.618-0.203,1.13-0.601,1.528c-0.406,0.402-0.918,0.605-1.532,0.605c-0.616,0-1.126-0.203-1.523-0.605
		c-0.408-0.397-0.607-0.91-0.607-1.528v-19.906c0-3.126-0.751-5.679-2.243-7.648c-1.493-1.96-3.802-2.945-6.926-2.945
		c-1.994,0-3.879,0.473-5.652,1.417c-1.782,0.954-3.215,2.239-4.305,3.877c-1.089,1.634-1.632,3.4-1.632,5.299v19.906
		c0,0.618-0.203,1.13-0.607,1.528c-0.402,0.402-0.912,0.605-1.528,0.605c-0.618,0-1.126-0.203-1.528-0.605
		c-0.402-0.397-0.607-0.91-0.607-1.528v-20.122c0-3.078-0.713-5.582-2.128-7.498c-1.424-1.921-3.654-2.879-6.683-2.879
		c-1.945,0-3.784,0.473-5.513,1.417c-1.731,0.954-3.128,2.221-4.195,3.806c-1.066,1.59-1.596,3.303-1.596,5.153v20.122
		c0,0.618-0.203,1.13-0.607,1.528c-0.402,0.402-0.912,0.605-1.528,0.605c-0.618,0-1.126-0.203-1.528-0.605
		c-0.402-0.397-0.605-0.91-0.605-1.528v-31.854c0-0.609,0.203-1.122,0.605-1.528c0.402-0.397,0.91-0.601,1.528-0.601
		c0.616,0,1.126,0.203,1.528,0.601c0.404,0.406,0.607,0.918,0.607,1.528v4.124c1.274-1.943,3.007-3.55,5.186-4.831
		c2.179-1.285,4.482-1.917,6.895-1.917c2.749,0,5.125,0.658,7.114,1.987c1.989,1.325,3.409,3.268,4.263,5.825
		c0.994-2.08,2.817-3.908,5.476-5.471c2.654-1.563,5.332-2.34,8.03-2.34C137.792,260.65,140.93,261.957,142.945,264.589"/>
	<path clip-path="url(#SVGID_2_)" fill="#717070" d="M186.137,278.454c-0.43,0.406-0.927,0.601-1.497,0.601h-26.872
		c0,2.844,0.578,5.396,1.744,7.648c1.159,2.252,2.817,4.027,4.974,5.326c2.157,1.315,4.703,1.96,7.642,1.96
		c2.274,0,4.314-0.477,6.113-1.422c1.804-0.949,3.248-2.159,4.336-3.625c0.525-0.428,1.018-0.64,1.497-0.64
		c0.47,0,0.901,0.186,1.276,0.565c0.384,0.379,0.574,0.813,0.574,1.28c0,0.525-0.24,1.02-0.715,1.493
		c-1.514,1.85-3.422,3.369-5.725,4.557c-2.296,1.179-4.725,1.775-7.284,1.775c-3.649,0-6.877-0.782-9.673-2.349
		c-2.792-1.563-4.974-3.753-6.537-6.58c-1.565-2.817-2.347-6.076-2.347-9.771c0-3.886,0.773-7.286,2.31-10.205
		c1.543-2.91,3.592-5.14,6.151-6.681c2.559-1.537,5.286-2.305,8.176-2.305c2.844,0,5.511,0.658,7.997,1.983
		c2.488,1.333,4.518,3.276,6.078,5.829c1.57,2.565,2.369,5.599,2.42,9.105C186.775,277.562,186.562,278.052,186.137,278.454
		 M162.637,267.044c-2.347,1.894-3.851,4.619-4.513,8.178h24.242v-0.574c-0.236-2.128-0.945-3.992-2.13-5.582
		c-1.184-1.585-2.667-2.791-4.444-3.621s-3.612-1.245-5.511-1.245C167.53,264.2,164.984,265.149,162.637,267.044"/>
	<path clip-path="url(#SVGID_2_)" fill="#717070" d="M221.361,263.948c2.062,2.583,3.093,6.01,3.093,10.275v20.904
		c0,0.618-0.212,1.126-0.638,1.528c-0.431,0.402-0.927,0.605-1.497,0.605c-0.614,0-1.122-0.203-1.523-0.605
		c-0.406-0.402-0.605-0.91-0.605-1.528v-20.692c0-3.082-0.775-5.582-2.312-7.498c-1.541-1.925-3.925-2.879-7.149-2.879
		c-2.04,0-3.965,0.477-5.791,1.422c-1.828,0.945-3.305,2.217-4.447,3.798c-1.135,1.594-1.704,3.312-1.704,5.157v20.692
		c0,0.618-0.203,1.126-0.605,1.528s-0.91,0.605-1.523,0.605c-0.621,0-1.13-0.203-1.535-0.605c-0.402-0.402-0.605-0.91-0.605-1.528
		v-31.85c0-0.614,0.203-1.126,0.605-1.532c0.404-0.397,0.914-0.601,1.535-0.601c0.614,0,1.122,0.203,1.523,0.601
		c0.402,0.406,0.605,0.918,0.605,1.532v3.908c1.28-2.04,3.115-3.736,5.508-5.087c2.396-1.342,4.851-2.022,7.361-2.022
		C216.063,260.076,219.299,261.365,221.361,263.948"/>
	<path clip-path="url(#SVGID_2_)" fill="#717070" d="M281.686,260.716c0.424,0.331,0.636,0.759,0.636,1.276
		c0,0.433-0.09,0.83-0.28,1.21l-13.936,32.703c-0.19,0.379-0.466,0.707-0.817,0.967c-0.353,0.256-0.724,0.389-1.104,0.389
		c-0.475,0.044-0.9-0.049-1.28-0.287c-0.38-0.234-0.66-0.592-0.85-1.068l-14.006-32.703c0-0.097-0.038-0.234-0.104-0.424
		c-0.073-0.19-0.11-0.375-0.11-0.57c0-0.565,0.186-1.055,0.57-1.457c0.375-0.402,0.923-0.601,1.634-0.601
		c0.428,0,0.817,0.128,1.174,0.384c0.358,0.265,0.625,0.609,0.819,1.033l12.085,28.794l12.154-28.794
		c0.19-0.424,0.466-0.769,0.819-1.033c0.354-0.256,0.773-0.367,1.243-0.318C280.807,260.217,281.26,260.385,281.686,260.716"/>
	<path clip-path="url(#SVGID_2_)" fill="#717070" d="M320.288,288.729c-1.559,2.888-3.716,5.149-6.464,6.792
		c-2.749,1.629-5.807,2.451-9.176,2.451c-3.362,0-6.42-0.821-9.169-2.451c-2.749-1.643-4.906-3.903-6.471-6.792
		c-1.563-2.892-2.347-6.116-2.347-9.675c0-3.55,0.784-6.773,2.347-9.666c1.565-2.888,3.722-5.162,6.471-6.822
		c2.749-1.661,5.807-2.491,9.169-2.491c3.369,0,6.427,0.83,9.176,2.491c2.749,1.66,4.906,3.934,6.464,6.822
		c1.565,2.892,2.347,6.116,2.347,9.666C322.635,282.613,321.853,285.837,320.288,288.729 M316.594,271.38
		c-1.188-2.278-2.831-4.063-4.941-5.37c-2.113-1.302-4.44-1.952-7.005-1.952c-2.559,0-4.877,0.649-6.963,1.952
		c-2.089,1.307-3.733,3.091-4.946,5.37c-1.203,2.279-1.808,4.831-1.808,7.674c0,2.8,0.605,5.339,1.808,7.613
		c1.212,2.274,2.857,4.063,4.946,5.37c2.086,1.298,4.404,1.952,6.963,1.952c2.565,0,4.893-0.645,7.005-1.917
		c2.111-1.28,3.753-3.06,4.941-5.338c1.186-2.274,1.777-4.835,1.777-7.679S317.78,273.659,316.594,271.38"/>
	<path clip-path="url(#SVGID_2_)" fill="#717070" d="M361.521,288.729c-1.559,2.888-3.716,5.149-6.465,6.792
		c-2.749,1.629-5.807,2.451-9.176,2.451c-3.362,0-6.42-0.821-9.169-2.451c-2.749-1.643-4.906-3.903-6.471-6.792
		c-1.563-2.892-2.347-6.116-2.347-9.675c0-3.55,0.784-6.773,2.347-9.666c1.565-2.888,3.723-5.162,6.471-6.822
		c2.749-1.661,5.807-2.491,9.169-2.491c3.369,0,6.427,0.83,9.176,2.491c2.749,1.66,4.906,3.934,6.465,6.822
		c1.565,2.892,2.347,6.116,2.347,9.666C363.868,282.613,363.087,285.837,361.521,288.729 M357.828,271.38
		c-1.188-2.278-2.831-4.063-4.941-5.37c-2.113-1.302-4.44-1.952-7.006-1.952c-2.559,0-4.877,0.649-6.961,1.952
		c-2.091,1.307-3.736,3.091-4.948,5.37c-1.204,2.279-1.809,4.831-1.809,7.674c0,2.8,0.605,5.339,1.809,7.613
		c1.212,2.274,2.857,4.063,4.948,5.37c2.084,1.298,4.402,1.952,6.961,1.952c2.566,0,4.893-0.645,7.006-1.917
		c2.11-1.28,3.753-3.06,4.941-5.338c1.186-2.274,1.777-4.835,1.777-7.679S359.013,273.659,357.828,271.38"/>
	<path clip-path="url(#SVGID_2_)" fill="#717070" d="M391.098,260.646c0.762,0.38,1.135,0.949,1.135,1.705
		c0,0.667-0.183,1.196-0.565,1.603c-0.379,0.397-0.83,0.605-1.351,0.605c-0.238,0-0.7-0.119-1.389-0.357
		c-0.687-0.239-1.338-0.358-1.952-0.358c-1.755,0-3.495,0.676-5.224,2.027c-1.731,1.351-3.155,3.091-4.268,5.228
		c-1.113,2.128-1.669,4.288-1.669,6.469v17.557c0,0.618-0.203,1.13-0.605,1.532c-0.404,0.402-0.914,0.601-1.528,0.601
		c-0.621,0-1.126-0.199-1.53-0.601c-0.401-0.402-0.604-0.914-0.604-1.532v-31.846c0-0.614,0.203-1.126,0.604-1.532
		c0.404-0.397,0.91-0.601,1.53-0.601c0.614,0,1.124,0.203,1.528,0.601c0.402,0.406,0.605,0.918,0.605,1.532v6.252
		c1.091-2.698,2.735-4.941,4.939-6.716c2.206-1.779,4.797-2.689,7.785-2.733C389.488,260.08,390.338,260.266,391.098,260.646"/>
	<path clip-path="url(#SVGID_2_)" fill="#717070" d="M423.303,265.048v23.823c0,1.797,0.331,3.02,0.996,3.661
		c0.665,0.64,1.542,0.954,2.632,0.954c0.285,0,0.636-0.053,1.066-0.177c0.424-0.115,0.755-0.172,0.994-0.172
		c0.426,0,0.797,0.172,1.104,0.534c0.307,0.353,0.461,0.768,0.461,1.241c0,0.667-0.38,1.223-1.139,1.673
		c-0.76,0.451-1.661,0.671-2.7,0.671c-1.278,0-2.418-0.115-3.414-0.354c-0.994-0.238-1.958-0.945-2.879-2.128
		c-0.923-1.188-1.384-3.087-1.384-5.692v-24.035h-5.191c-0.569,0-1.06-0.181-1.461-0.565c-0.397-0.38-0.601-0.853-0.601-1.422
		c0-0.57,0.203-1.042,0.601-1.422c0.402-0.38,0.892-0.565,1.461-0.565h5.191v-7.895c0-0.609,0.199-1.13,0.605-1.528
		c0.404-0.397,0.91-0.601,1.523-0.601c0.616,0,1.126,0.203,1.534,0.601c0.402,0.397,0.601,0.918,0.601,1.528v7.895h7.109
		c0.523,0,0.984,0.212,1.386,0.64c0.404,0.419,0.607,0.901,0.607,1.417c0,0.574-0.194,1.033-0.57,1.387
		c-0.379,0.357-0.854,0.53-1.424,0.53H423.303z"/>
	<path clip-path="url(#SVGID_2_)" fill="#717070" d="M470.081,288.729c-1.559,2.888-3.716,5.149-6.464,6.792
		c-2.749,1.629-5.807,2.451-9.176,2.451c-3.363,0-6.42-0.821-9.169-2.451c-2.749-1.643-4.906-3.903-6.471-6.792
		c-1.563-2.892-2.347-6.116-2.347-9.675c0-3.55,0.784-6.773,2.347-9.666c1.565-2.888,3.722-5.162,6.471-6.822
		c2.749-1.661,5.806-2.491,9.169-2.491c3.369,0,6.427,0.83,9.176,2.491c2.749,1.66,4.906,3.934,6.464,6.822
		c1.565,2.892,2.347,6.116,2.347,9.666C472.428,282.613,471.646,285.837,470.081,288.729 M466.387,271.38
		c-1.188-2.278-2.831-4.063-4.941-5.37c-2.113-1.302-4.44-1.952-7.005-1.952c-2.559,0-4.877,0.649-6.961,1.952
		c-2.091,1.307-3.735,3.091-4.948,5.37c-1.203,2.279-1.808,4.831-1.808,7.674c0,2.8,0.605,5.339,1.808,7.613
		c1.212,2.274,2.857,4.063,4.948,5.37c2.084,1.298,4.402,1.952,6.961,1.952c2.565,0,4.893-0.645,7.005-1.917
		c2.111-1.28,3.753-3.06,4.941-5.338c1.186-2.274,1.777-4.835,1.777-7.679S467.573,273.659,466.387,271.38"/>
	<path clip-path="url(#SVGID_2_)" fill="#717070" d="M505.918,263.025c2.554,1.585,4.557,3.793,6.005,6.615
		c1.446,2.817,2.166,5.983,2.166,9.494c0,3.55-0.72,6.734-2.166,9.56c-1.449,2.817-3.438,5.034-5.975,6.646
		s-5.367,2.416-8.496,2.416c-2.749,0-5.272-0.649-7.568-1.952c-2.303-1.303-4.138-3.051-5.513-5.229v18.771
		c0,0.614-0.203,1.122-0.605,1.528c-0.402,0.402-0.91,0.605-1.528,0.605c-0.616,0-1.126-0.203-1.53-0.605
		c-0.402-0.406-0.605-0.914-0.605-1.528V262.99c0-0.609,0.203-1.139,0.605-1.563c0.404-0.429,0.914-0.641,1.53-0.641
		c0.618,0,1.126,0.212,1.528,0.641c0.402,0.424,0.605,0.954,0.605,1.563v4.839c1.23-2.234,3.007-3.987,5.332-5.263
		c2.323-1.281,4.884-1.921,7.677-1.921C500.511,260.646,503.355,261.445,505.918,263.025 M503.675,291.891
		c1.967-1.258,3.508-2.998,4.621-5.224c1.112-2.226,1.669-4.738,1.669-7.533c0-2.751-0.557-5.228-1.669-7.432
		c-1.113-2.208-2.654-3.934-4.621-5.188c-1.967-1.263-4.182-1.89-6.646-1.89c-2.515,0-4.767,0.618-6.756,1.85
		s-3.532,2.954-4.621,5.153c-1.091,2.203-1.634,4.707-1.634,7.506c0,2.795,0.543,5.308,1.634,7.533
		c1.088,2.226,2.631,3.965,4.621,5.224c1.989,1.259,4.241,1.886,6.756,1.886C499.494,293.776,501.708,293.149,503.675,291.891"/>
	<path clip-path="url(#SVGID_2_)" fill="#717070" d="M559.732,260.646c0.76,0.38,1.135,0.949,1.135,1.705
		c0,0.667-0.185,1.196-0.565,1.603c-0.38,0.397-0.833,0.605-1.351,0.605c-0.241,0-0.702-0.119-1.389-0.357
		c-0.687-0.239-1.338-0.358-1.954-0.358c-1.753,0-3.495,0.676-5.222,2.027c-1.731,1.351-3.157,3.091-4.268,5.228
		c-1.113,2.128-1.669,4.288-1.669,6.469v17.557c0,0.618-0.203,1.13-0.607,1.532c-0.402,0.402-0.912,0.601-1.528,0.601
		c-0.618,0-1.126-0.199-1.528-0.601s-0.605-0.914-0.605-1.532v-31.846c0-0.614,0.203-1.126,0.605-1.532
		c0.402-0.397,0.91-0.601,1.528-0.601c0.616,0,1.126,0.203,1.528,0.601c0.404,0.406,0.607,0.918,0.607,1.532v6.252
		c1.088-2.698,2.735-4.941,4.937-6.716c2.208-1.779,4.798-2.689,7.787-2.733C558.123,260.08,558.973,260.266,559.732,260.646"/>
	<path clip-path="url(#SVGID_2_)" fill="#717070" d="M594.998,278.454c-0.431,0.406-0.927,0.601-1.497,0.601h-26.872
		c0,2.844,0.579,5.396,1.744,7.648c1.159,2.252,2.817,4.027,4.975,5.326c2.157,1.315,4.702,1.96,7.641,1.96
		c2.274,0,4.314-0.477,6.113-1.422c1.804-0.949,3.248-2.159,4.336-3.625c0.525-0.428,1.018-0.64,1.497-0.64
		c0.47,0,0.9,0.186,1.276,0.565c0.384,0.379,0.574,0.813,0.574,1.28c0,0.525-0.241,1.02-0.715,1.493
		c-1.515,1.85-3.422,3.369-5.725,4.557c-2.296,1.179-4.725,1.775-7.284,1.775c-3.649,0-6.877-0.782-9.672-2.349
		c-2.793-1.563-4.972-3.753-6.538-6.58c-1.565-2.817-2.347-6.076-2.347-9.771c0-3.886,0.772-7.286,2.312-10.205
		c1.541-2.91,3.59-5.14,6.148-6.681c2.559-1.537,5.286-2.305,8.176-2.305c2.844,0,5.511,0.658,7.999,1.983
		c2.486,1.333,4.515,3.276,6.076,5.829c1.57,2.565,2.369,5.599,2.42,9.105C595.636,277.562,595.422,278.052,594.998,278.454
		 M571.498,267.044c-2.345,1.894-3.851,4.619-4.511,8.178h24.24v-0.574c-0.236-2.128-0.945-3.992-2.131-5.582
		c-1.183-1.585-2.667-2.791-4.444-3.621s-3.612-1.245-5.511-1.245C576.39,264.2,573.845,265.149,571.498,267.044"/>
	<path clip-path="url(#SVGID_2_)" fill="#717070" d="M631.825,260.716c0.428,0.331,0.645,0.759,0.645,1.276
		c0,0.433-0.097,0.83-0.292,1.21l-13.931,32.703c-0.19,0.379-0.464,0.707-0.817,0.967c-0.362,0.256-0.724,0.389-1.104,0.389
		c-0.473,0.044-0.901-0.049-1.281-0.287c-0.379-0.234-0.662-0.592-0.856-1.068l-14.002-32.703c0-0.097-0.031-0.234-0.104-0.424
		s-0.108-0.375-0.108-0.57c0-0.565,0.186-1.055,0.57-1.457c0.375-0.402,0.923-0.601,1.632-0.601c0.43,0,0.819,0.128,1.177,0.384
		c0.353,0.265,0.623,0.609,0.817,1.033l12.085,28.794l12.157-28.794c0.189-0.424,0.463-0.769,0.816-1.033
		c0.358-0.256,0.777-0.367,1.246-0.318C630.95,260.217,631.392,260.385,631.825,260.716"/>
	<path clip-path="url(#SVGID_2_)" fill="#717070" d="M670.466,261.568c0.397,0.424,0.601,0.949,0.601,1.563v31.992
		c0,0.623-0.203,1.126-0.601,1.532c-0.406,0.406-0.914,0.601-1.528,0.601c-0.623,0-1.13-0.194-1.532-0.601
		c-0.406-0.406-0.601-0.91-0.601-1.532v-4.765c-1.192,2.133-2.967,3.939-5.334,5.405c-2.376,1.466-4.955,2.208-7.75,2.208
		c-3.18,0-6.036-0.83-8.571-2.49c-2.534-1.661-4.521-3.935-5.97-6.822c-1.448-2.893-2.172-6.143-2.172-9.741
		c0-3.603,0.742-6.835,2.208-9.71c1.471-2.861,3.471-5.104,6.01-6.716c2.53-1.612,5.339-2.416,8.421-2.416
		c2.848,0,5.449,0.685,7.825,2.058c2.367,1.378,4.142,3.184,5.334,5.409v-4.411c0-0.614,0.194-1.139,0.601-1.563
		c0.402-0.424,0.91-0.636,1.532-0.636C669.552,260.933,670.06,261.145,670.466,261.568 M660.792,292.032
		c1.969-1.303,3.511-3.104,4.623-5.405c1.113-2.296,1.674-4.866,1.674-7.71c0-2.751-0.561-5.264-1.674-7.542
		c-1.112-2.274-2.654-4.058-4.623-5.365c-1.965-1.298-4.177-1.952-6.641-1.952c-2.473,0-4.681,0.641-6.65,1.917
		c-1.97,1.281-3.515,3.051-4.628,5.299c-1.113,2.252-1.669,4.8-1.669,7.644s0.547,5.414,1.643,7.71
		c1.086,2.3,2.614,4.102,4.583,5.405c1.965,1.307,4.204,1.956,6.721,1.956C656.614,293.988,658.827,293.339,660.792,292.032"/>
	<path clip-path="url(#SVGID_2_)" fill="#717070" d="M685.254,296.655c-0.406,0.406-0.918,0.601-1.528,0.601
		c-0.623,0-1.13-0.194-1.537-0.601c-0.402-0.406-0.601-0.914-0.601-1.528V246.78c0-0.614,0.199-1.126,0.601-1.528
		c0.406-0.402,0.914-0.605,1.537-0.605c0.609,0,1.122,0.203,1.528,0.605c0.397,0.402,0.601,0.914,0.601,1.528v48.347
		C685.855,295.741,685.652,296.249,685.254,296.655"/>
	<path clip-path="url(#SVGID_2_)" fill="#717070" d="M696.236,254.852c-0.521-0.455-0.781-1.104-0.781-1.956v-0.711
		c0-0.852,0.27-1.506,0.821-1.956c0.539-0.451,1.285-0.676,2.239-0.676c1.894,0,2.839,0.879,2.839,2.632v0.711
		c0,0.852-0.248,1.501-0.746,1.956c-0.499,0.455-1.224,0.676-2.168,0.676S696.752,255.307,696.236,254.852 M699.967,296.655
		c-0.406,0.406-0.91,0.601-1.528,0.601s-1.13-0.194-1.528-0.601c-0.406-0.406-0.605-0.914-0.605-1.528v-32.703
		c0-0.618,0.199-1.13,0.605-1.532c0.397-0.402,0.91-0.605,1.528-0.605s1.122,0.203,1.528,0.605s0.605,0.914,0.605,1.532v32.703
		C700.572,295.741,700.374,296.249,699.967,296.655"/>
	<path clip-path="url(#SVGID_2_)" fill="#717070" d="M741.634,245.257c0.397,0.397,0.6,0.91,0.6,1.523v48.347
		c0,0.618-0.203,1.13-0.6,1.528c-0.406,0.402-0.918,0.601-1.528,0.601c-0.623,0-1.13-0.199-1.537-0.601
		c-0.402-0.397-0.601-0.91-0.601-1.528v-4.981c-1.188,2.186-2.95,4.027-5.299,5.546c-2.349,1.519-4.937,2.278-7.781,2.278
		c-3.13,0-5.965-0.821-8.496-2.455c-2.539-1.634-4.539-3.895-6.014-6.787c-1.466-2.892-2.203-6.138-2.203-9.741
		c0-3.555,0.737-6.778,2.203-9.666c1.475-2.896,3.475-5.162,6.014-6.792c2.53-1.638,5.338-2.455,8.425-2.455
		c2.791,0,5.374,0.698,7.745,2.098c2.367,1.4,4.168,3.21,5.405,5.436V246.78c0-0.614,0.199-1.126,0.601-1.523
		c0.406-0.406,0.914-0.609,1.537-0.609C740.715,244.647,741.228,244.851,741.634,245.257 M731.959,292.072
		c1.965-1.28,3.51-3.073,4.623-5.37c1.113-2.3,1.669-4.87,1.669-7.714c0-2.795-0.557-5.339-1.669-7.608s-2.658-4.063-4.623-5.37
		c-1.965-1.302-4.182-1.952-6.646-1.952c-2.468,0-4.681,0.649-6.65,1.952c-1.97,1.307-3.511,3.1-4.624,5.37
		s-1.665,4.813-1.665,7.608c0,2.844,0.552,5.4,1.665,7.679c1.113,2.274,2.654,4.063,4.624,5.361c1.969,1.312,4.182,1.96,6.65,1.96
		C727.777,293.988,729.994,293.348,731.959,292.072"/>
	<path clip-path="url(#SVGID_2_)" fill="#717070" d="M783.362,261.568c0.397,0.424,0.601,0.949,0.601,1.563v31.992
		c0,0.623-0.203,1.126-0.601,1.532c-0.406,0.406-0.91,0.601-1.528,0.601s-1.13-0.194-1.532-0.601s-0.605-0.91-0.605-1.532v-4.765
		c-1.184,2.133-2.963,3.939-5.325,5.405c-2.376,1.466-4.959,2.208-7.754,2.208c-3.18,0-6.032-0.83-8.566-2.49
		c-2.535-1.661-4.526-3.935-5.975-6.822c-1.444-2.893-2.168-6.143-2.168-9.741c0-3.603,0.733-6.835,2.208-9.71
		c1.466-2.861,3.471-5.104,6.005-6.716c2.535-1.612,5.343-2.416,8.425-2.416c2.844,0,5.449,0.685,7.825,2.058
		c2.362,1.378,4.142,3.184,5.325,5.409v-4.411c0-0.614,0.203-1.139,0.605-1.563s0.914-0.636,1.532-0.636
		S782.956,261.145,783.362,261.568 M773.691,292.032c1.969-1.303,3.506-3.104,4.619-5.405c1.113-2.296,1.674-4.866,1.674-7.71
		c0-2.751-0.561-5.264-1.674-7.542c-1.112-2.274-2.649-4.058-4.619-5.365c-1.969-1.298-4.186-1.952-6.65-1.952
		s-4.681,0.641-6.641,1.917c-1.974,1.281-3.515,3.051-4.628,5.299c-1.113,2.252-1.669,4.8-1.669,7.644s0.547,5.414,1.634,7.71
		c1.095,2.3,2.623,4.102,4.588,5.405c1.965,1.307,4.204,1.956,6.716,1.956C769.505,293.988,771.722,293.339,773.691,292.032"/>
	<path clip-path="url(#SVGID_2_)" fill="#717070" d="M801.17,265.048v23.823c0,1.797,0.331,3.02,0.993,3.661
		c0.663,0.64,1.541,0.954,2.632,0.954c0.283,0,0.636-0.053,1.068-0.177c0.424-0.115,0.751-0.172,0.994-0.172
		c0.424,0,0.791,0.172,1.104,0.534c0.305,0.353,0.464,0.768,0.464,1.241c0,0.667-0.384,1.223-1.144,1.673
		c-0.76,0.451-1.656,0.671-2.698,0.671c-1.28,0-2.42-0.115-3.413-0.354c-0.994-0.238-1.957-0.945-2.884-2.128
		c-0.918-1.188-1.382-3.087-1.382-5.692v-24.035h-5.188c-0.574,0-1.06-0.181-1.462-0.565c-0.401-0.38-0.604-0.853-0.604-1.422
		c0-0.57,0.203-1.042,0.604-1.422c0.402-0.38,0.888-0.565,1.462-0.565h5.188v-7.895c0-0.609,0.203-1.13,0.605-1.528
		c0.397-0.397,0.91-0.601,1.528-0.601c0.609,0,1.121,0.203,1.527,0.601s0.605,0.918,0.605,1.528v7.895h7.104
		c0.53,0,0.989,0.212,1.391,0.64c0.402,0.419,0.605,0.901,0.605,1.417c0,0.574-0.19,1.033-0.57,1.387
		c-0.379,0.357-0.852,0.53-1.426,0.53H801.17z"/>
	<path clip-path="url(#SVGID_2_)" fill="#717070" d="M816.881,254.852c-0.521-0.455-0.782-1.104-0.782-1.956v-0.711
		c0-0.852,0.269-1.506,0.821-1.956c0.539-0.451,1.285-0.676,2.239-0.676c1.895,0,2.839,0.879,2.839,2.632v0.711
		c0,0.852-0.248,1.501-0.747,1.956c-0.499,0.455-1.223,0.676-2.168,0.676C818.14,255.528,817.398,255.307,816.881,254.852
		 M820.612,296.655c-0.406,0.406-0.91,0.601-1.528,0.601s-1.13-0.194-1.528-0.601c-0.406-0.406-0.605-0.914-0.605-1.528v-32.703
		c0-0.618,0.199-1.13,0.605-1.532c0.397-0.402,0.91-0.605,1.528-0.605s1.122,0.203,1.528,0.605s0.605,0.914,0.605,1.532v32.703
		C821.217,295.741,821.019,296.249,820.612,296.655"/>
	<path clip-path="url(#SVGID_2_)" fill="#717070" d="M861.316,278.454c-0.428,0.406-0.927,0.601-1.497,0.601h-26.87
		c0,2.844,0.574,5.396,1.74,7.648c1.162,2.252,2.817,4.027,4.977,5.326c2.159,1.315,4.707,1.96,7.644,1.96
		c2.278,0,4.31-0.477,6.111-1.422c1.801-0.949,3.25-2.159,4.336-3.625c0.521-0.428,1.016-0.64,1.497-0.64
		c0.473,0,0.896,0.186,1.276,0.565c0.38,0.379,0.574,0.813,0.574,1.28c0,0.525-0.238,1.02-0.715,1.493
		c-1.514,1.85-3.422,3.369-5.723,4.557c-2.296,1.179-4.725,1.775-7.286,1.775c-3.647,0-6.88-0.782-9.666-2.349
		c-2.8-1.563-4.977-3.753-6.544-6.58c-1.568-2.817-2.345-6.076-2.345-9.771c0-3.886,0.768-7.286,2.309-10.205
		c1.537-2.91,3.59-5.14,6.151-6.681c2.557-1.537,5.281-2.305,8.173-2.305c2.844,0,5.511,0.658,7.997,1.983
		c2.491,1.333,4.522,3.276,6.076,5.829c1.572,2.565,2.371,5.599,2.419,9.105C861.952,277.562,861.74,278.052,861.316,278.454
		 M837.816,267.044c-2.345,1.894-3.851,4.619-4.513,8.178h24.242v-0.574c-0.234-2.128-0.945-3.992-2.128-5.582
		c-1.183-1.585-2.667-2.791-4.446-3.621s-3.612-1.245-5.511-1.245C842.708,264.2,840.165,265.149,837.816,267.044"/>
	<path clip-path="url(#SVGID_2_)" fill="#717070" d="M918.119,278.454c-0.424,0.406-0.927,0.601-1.492,0.601h-26.874
		c0,2.844,0.579,5.396,1.74,7.648c1.166,2.252,2.822,4.027,4.981,5.326c2.155,1.315,4.707,1.96,7.639,1.96
		c2.278,0,4.314-0.477,6.111-1.422c1.806-0.949,3.25-2.159,4.336-3.625c0.521-0.428,1.021-0.64,1.501-0.64
		c0.473,0,0.892,0.186,1.272,0.565c0.379,0.379,0.574,0.813,0.574,1.28c0,0.525-0.238,1.02-0.715,1.493
		c-1.51,1.85-3.417,3.369-5.714,4.557c-2.305,1.179-4.733,1.775-7.294,1.775c-3.647,0-6.875-0.782-9.662-2.349
		c-2.8-1.563-4.981-3.753-6.544-6.58c-1.567-2.817-2.349-6.076-2.349-9.771c0-3.886,0.772-7.286,2.314-10.205
		c1.536-2.91,3.585-5.14,6.146-6.681c2.561-1.537,5.285-2.305,8.178-2.305c2.844,0,5.511,0.658,7.997,1.983
		c2.491,1.333,4.517,3.276,6.076,5.829c1.567,2.565,2.371,5.599,2.42,9.105C918.76,277.562,918.552,278.052,918.119,278.454
		 M894.624,267.044c-2.345,1.894-3.855,4.619-4.513,8.178h24.237v-0.574c-0.229-2.128-0.945-3.992-2.128-5.582
		c-1.184-1.585-2.663-2.791-4.442-3.621s-3.612-1.245-5.511-1.245C899.516,264.2,896.968,265.149,894.624,267.044"/>
	<path clip-path="url(#SVGID_2_)" fill="#717070" d="M953.348,263.948c2.062,2.583,3.091,6.01,3.091,10.275v20.904
		c0,0.618-0.212,1.126-0.64,1.528s-0.923,0.605-1.493,0.605c-0.614,0-1.126-0.203-1.523-0.605c-0.406-0.402-0.609-0.91-0.609-1.528
		v-20.692c0-3.082-0.768-5.582-2.305-7.498c-1.545-1.925-3.93-2.879-7.154-2.879c-2.04,0-3.965,0.477-5.789,1.422
		c-1.828,0.945-3.308,2.217-4.447,3.798c-1.135,1.594-1.704,3.312-1.704,5.157v20.692c0,0.618-0.203,1.126-0.605,1.528
		c-0.401,0.402-0.914,0.605-1.527,0.605c-0.614,0-1.126-0.203-1.532-0.605c-0.397-0.402-0.601-0.91-0.601-1.528v-31.85
		c0-0.614,0.203-1.126,0.601-1.532c0.406-0.397,0.918-0.601,1.532-0.601c0.613,0,1.126,0.203,1.527,0.601
		c0.402,0.406,0.605,0.918,0.605,1.532v3.908c1.276-2.04,3.117-3.736,5.511-5.087c2.389-1.342,4.844-2.022,7.356-2.022
		C948.049,260.076,951.286,261.365,953.348,263.948"/>
	<path clip-path="url(#SVGID_2_)" fill="#717070" d="M1010.968,264.659c2.084,2.685,3.13,6.129,3.13,10.351v20.113
		c0,0.623-0.203,1.13-0.609,1.532c-0.401,0.406-0.909,0.601-1.527,0.601c-0.614,0-1.126-0.194-1.528-0.601
		c-0.402-0.402-0.601-0.91-0.601-1.532V275.01c0-3.083-0.738-5.582-2.208-7.507c-1.466-1.917-3.767-2.879-6.897-2.879
		c-1.987,0-3.873,0.477-5.652,1.426c-1.779,0.945-3.206,2.212-4.296,3.802c-1.095,1.59-1.638,3.303-1.638,5.158v20.113
		c0,0.623-0.203,1.13-0.605,1.532c-0.402,0.406-0.914,0.601-1.528,0.601s-1.126-0.194-1.532-0.601
		c-0.397-0.402-0.601-0.91-0.601-1.532v-48.347c0-0.614,0.203-1.122,0.601-1.519c0.406-0.406,0.918-0.609,1.532-0.609
		s1.126,0.203,1.528,0.609c0.402,0.397,0.605,0.905,0.605,1.519v20.833c1.28-2.036,3.056-3.709,5.334-5.007
		c2.27-1.307,4.597-1.956,6.968-1.956C1005.704,260.646,1008.883,261.983,1010.968,264.659"/>
	<path clip-path="url(#SVGID_2_)" fill="#717070" d="M1054.268,278.454c-0.429,0.406-0.928,0.601-1.497,0.601h-26.874
		c0,2.844,0.583,5.396,1.74,7.648c1.166,2.252,2.826,4.027,4.981,5.326c2.155,1.315,4.707,1.96,7.639,1.96
		c2.279,0,4.319-0.477,6.116-1.422c1.806-0.949,3.246-2.159,4.336-3.625c0.517-0.428,1.021-0.64,1.497-0.64
		c0.477,0,0.892,0.186,1.272,0.565c0.379,0.379,0.574,0.813,0.574,1.28c0,0.525-0.238,1.02-0.711,1.493
		c-1.515,1.85-3.422,3.369-5.727,4.557c-2.296,1.179-4.725,1.775-7.281,1.775c-3.652,0-6.875-0.782-9.666-2.349
		c-2.799-1.563-4.981-3.753-6.544-6.58c-1.563-2.817-2.349-6.076-2.349-9.771c0-3.886,0.777-7.286,2.313-10.205
		c1.537-2.91,3.586-5.14,6.147-6.681c2.561-1.537,5.29-2.305,8.178-2.305c2.844,0,5.511,0.658,7.997,1.983
		c2.495,1.333,4.518,3.276,6.081,5.829c1.563,2.565,2.367,5.599,2.416,9.105C1054.904,277.562,1054.692,278.052,1054.268,278.454
		 M1030.768,267.044c-2.345,1.894-3.855,4.619-4.513,8.178h24.242v-0.574c-0.234-2.128-0.945-3.992-2.133-5.582
		c-1.183-1.585-2.658-2.791-4.442-3.621c-1.775-0.83-3.612-1.245-5.511-1.245C1035.66,264.2,1033.112,265.149,1030.768,267.044"/>
	<path clip-path="url(#SVGID_2_)" fill="#717070" d="M1082.206,260.646c0.76,0.38,1.131,0.949,1.131,1.705
		c0,0.667-0.186,1.196-0.565,1.603c-0.38,0.397-0.83,0.605-1.351,0.605c-0.239,0-0.698-0.119-1.387-0.357
		c-0.689-0.239-1.338-0.358-1.952-0.358c-1.757,0-3.497,0.676-5.224,2.027c-1.731,1.351-3.157,3.091-4.27,5.228
		c-1.113,2.128-1.669,4.288-1.669,6.469v17.557c0,0.618-0.203,1.13-0.604,1.532c-0.406,0.402-0.914,0.601-1.532,0.601
		c-0.614,0-1.122-0.199-1.523-0.601c-0.402-0.402-0.605-0.914-0.605-1.532v-31.846c0-0.614,0.203-1.126,0.605-1.532
		c0.401-0.397,0.909-0.601,1.523-0.601c0.618,0,1.126,0.203,1.532,0.601c0.401,0.406,0.604,0.918,0.604,1.532v6.252
		c1.091-2.698,2.738-4.941,4.937-6.716c2.208-1.779,4.8-2.689,7.785-2.733C1080.594,260.08,1081.446,260.266,1082.206,260.646"/>
	<path clip-path="url(#SVGID_2_)" fill="#717070" d="M1086.326,289.935c0-0.618,0.305-1.086,0.927-1.422
		c0.278-0.283,0.658-0.424,1.135-0.424c0.57,0,1.086,0.238,1.563,0.707c2.795,3.7,6.518,5.55,11.163,5.55
		c2.278,0,4.252-0.539,5.939-1.603c1.682-1.064,2.521-2.623,2.521-4.654c0-1.992-0.786-3.488-2.345-4.478
		c-1.568-0.994-3.745-1.85-6.54-2.561c-3.939-0.998-7.017-2.287-9.242-3.877c-2.23-1.59-3.343-3.921-3.343-7.003
		c0-1.943,0.539-3.683,1.634-5.224c1.091-1.537,2.57-2.733,4.442-3.59c1.872-0.857,3.996-1.281,6.367-1.281
		c2.036,0,4.089,0.389,6.146,1.175c2.063,0.777,3.824,2.022,5.295,3.731c0.428,0.336,0.64,0.808,0.64,1.417
		c0,0.574-0.239,1.078-0.711,1.493c-0.332,0.287-0.755,0.433-1.281,0.433c-0.472,0-0.896-0.194-1.28-0.569
		c-1.135-1.281-2.486-2.252-4.049-2.91c-1.563-0.671-3.25-1.002-5.047-1.002c-2.229,0-4.137,0.525-5.727,1.568
		c-1.585,1.042-2.38,2.605-2.38,4.689c0.102,1.898,0.962,3.342,2.601,4.336c1.634,0.998,4.036,1.899,7.21,2.703
		c2.464,0.618,4.504,1.307,6.116,2.066c1.607,0.75,2.928,1.819,3.948,3.197c1.016,1.374,1.528,3.197,1.528,5.476
		c0,3.082-1.236,5.533-3.696,7.361c-2.468,1.824-5.524,2.733-9.171,2.733c-5.785,0-10.386-2.155-13.799-6.469
		C1086.516,290.879,1086.326,290.363,1086.326,289.935"/>
	<path clip-path="url(#SVGID_2_)" fill="#717070" d="M1128.341,265.048v23.823c0,1.797,0.331,3.02,0.998,3.661
		c0.662,0.64,1.541,0.954,2.631,0.954c0.283,0,0.636-0.053,1.069-0.177c0.424-0.115,0.75-0.172,0.989-0.172
		c0.428,0,0.794,0.172,1.104,0.534c0.309,0.353,0.463,0.768,0.463,1.241c0,0.667-0.38,1.223-1.139,1.673
		c-0.76,0.451-1.66,0.671-2.698,0.671c-1.28,0-2.419-0.115-3.417-0.354c-0.994-0.238-1.952-0.945-2.879-2.128
		c-0.918-1.188-1.382-3.087-1.382-5.692v-24.035h-5.188c-0.574,0-1.06-0.181-1.466-0.565c-0.397-0.38-0.601-0.853-0.601-1.422
		c0-0.57,0.203-1.042,0.601-1.422c0.406-0.38,0.892-0.565,1.466-0.565h5.188v-7.895c0-0.609,0.203-1.13,0.601-1.528
		c0.402-0.397,0.914-0.601,1.528-0.601s1.126,0.203,1.532,0.601s0.601,0.918,0.601,1.528v7.895h7.109
		c0.526,0,0.989,0.212,1.387,0.64c0.406,0.419,0.609,0.901,0.609,1.417c0,0.574-0.19,1.033-0.569,1.387
		c-0.384,0.357-0.857,0.53-1.427,0.53H1128.341z"/>
	<path clip-path="url(#SVGID_2_)" fill="#717070" d="M1173.99,278.454c-0.433,0.406-0.927,0.601-1.497,0.601h-26.874
		c0,2.844,0.579,5.396,1.745,7.648c1.157,2.252,2.817,4.027,4.976,5.326c2.16,1.315,4.707,1.96,7.644,1.96
		c2.279,0,4.31-0.477,6.111-1.422c1.802-0.949,3.246-2.159,4.336-3.625c0.521-0.428,1.016-0.64,1.497-0.64
		c0.473,0,0.896,0.186,1.276,0.565c0.379,0.379,0.574,0.813,0.574,1.28c0,0.525-0.238,1.02-0.715,1.493
		c-1.515,1.85-3.427,3.369-5.723,4.557c-2.3,1.179-4.725,1.775-7.286,1.775c-3.647,0-6.88-0.782-9.67-2.349
		c-2.799-1.563-4.977-3.753-6.54-6.58c-1.567-2.817-2.345-6.076-2.345-9.771c0-3.886,0.769-7.286,2.305-10.205
		c1.537-2.91,3.595-5.14,6.151-6.681c2.561-1.537,5.286-2.305,8.173-2.305c2.844,0,5.515,0.658,8.001,1.983
		c2.49,1.333,4.517,3.276,6.076,5.829c1.572,2.565,2.371,5.599,2.42,9.105C1174.626,277.562,1174.418,278.052,1173.99,278.454
		 M1150.49,267.044c-2.349,1.894-3.851,4.619-4.513,8.178h24.242v-0.574c-0.239-2.128-0.945-3.992-2.128-5.582
		c-1.188-1.585-2.667-2.791-4.447-3.621s-3.616-1.245-5.515-1.245C1155.382,264.2,1152.839,265.149,1150.49,267.044"/>
	<path clip-path="url(#SVGID_2_)" fill="#717070" d="M1186.469,296.655c-0.406,0.406-0.918,0.601-1.528,0.601
		c-0.623,0-1.13-0.194-1.537-0.601c-0.402-0.406-0.601-0.914-0.601-1.528V246.78c0-0.614,0.199-1.126,0.601-1.528
		c0.406-0.402,0.914-0.605,1.537-0.605c0.609,0,1.122,0.203,1.528,0.605c0.397,0.402,0.601,0.914,0.601,1.528v48.347
		C1187.069,295.741,1186.866,296.249,1186.469,296.655"/>
</g>
</svg>
