<?xml version="1.0" encoding="iso-8859-1"?>
<!-- Generator: Adobe Illustrator 19.0.0, SVG Export Plug-In . SVG Version: 6.00 Build 0)  -->
<svg version="1.1" id="Capa_1" xmlns="http://www.w3.org/2000/svg" xmlns:xlink="http://www.w3.org/1999/xlink" x="0px" y="0px"
	 viewBox="0 0 496.237 496.237" style="enable-background:new 0 0 496.237 496.237;" xml:space="preserve">
<g>
	<g>
		<path d="M234.637,64h149.6c17.6,0,32-14.4,32-32s-14.4-32-32-32h-56c-4.8,0-8,3.2-8,8v8h-95.2c-49.6,0-91.2,38.4-96,88
			l-24.8,302.4c-23.2,12.8-31.2,42.4-17.6,65.6c12.8,23.2,42.4,31.2,65.6,17.6c23.2-12.8,31.2-42.4,17.6-65.6
			c-4-7.2-9.6-12.8-16.8-16.8l10.4-119.2h151.2l13.6,136.8V448h-8c-4.8,0-8,3.2-8,8v32c0,4.8,3.2,8,8,8h64c4.8,0,8-3.2,8-8v-32
			c0-4.8-3.2-8-8-8h-8v-24v-0.8l-19.2-220.8c-2.4-32.8-30.4-58.4-64-58.4h-116.8l2.4-28.8C181.837,86.4,205.837,64,234.637,64z
			 M368.237,16h16c8.8,0,16,7.2,16,16s-7.2,16-16,16h-16V16z M336.237,16h16v32h-16V16z M304.237,32h16v16h-16V32z M160.237,448
			c0,17.6-14.4,32-32,32c-17.6,0-32-14.4-32-32c0-17.6,14.4-32,32-32C145.837,416,160.237,430.4,160.237,448z M165.037,272l1.6-16
			h144.8l1.6,16H165.037z M168.237,240l4-48h118.4c8,0,15.2,6.4,16,14.4l3.2,33.6H168.237z M376.237,480h-48v-16h48V480z
			 M360.237,448h-16v-16h16V448z M293.037,160c24.8,0,45.6,19.2,48,44l18.4,212h-16l-20.8-211.2c-1.6-16-15.2-28.8-32-28.8h-116.8
			l1.6-16H293.037z M162.637,113.6l-25.6,287.2c-2.4-0.8-5.6-0.8-8.8-0.8c-2.4,0-4.8,0-7.2,0.8l24.8-295.2
			c3.2-41.6,37.6-73.6,79.2-73.6h63.2v16h-53.6C197.037,48,165.837,76,162.637,113.6z"/>
	</g>
</g>
<g>
	<g>
		<path d="M128.237,424c-13.6,0-24,10.4-24,24c0,13.6,10.4,24,24,24c13.6,0,24-10.4,24-24C152.237,434.4,141.837,424,128.237,424z
			 M128.237,456c-4.8,0-8-3.2-8-8s3.2-8,8-8s8,3.2,8,8S133.037,456,128.237,456z"/>
	</g>
</g>
<g>
</g>
<g>
</g>
<g>
</g>
<g>
</g>
<g>
</g>
<g>
</g>
<g>
</g>
<g>
</g>
<g>
</g>
<g>
</g>
<g>
</g>
<g>
</g>
<g>
</g>
<g>
</g>
<g>
</g>
</svg>
