<svg id="Capa_1" enable-background="new 0 0 509.628 509.628" height="512" viewBox="0 0 509.628 509.628" width="512" xmlns="http://www.w3.org/2000/svg"><g><path d="m341.718 20.806-2.946-2.308c-19.553-15.319-44.673-21.015-68.923-15.626l-63.056 14.013c-4.634 1.028-9.462-.294-12.921-3.538l-5.746-5.387c-7.601-7.126-18.119-9.671-28.136-6.805-10.018 2.864-17.601 10.585-20.285 20.652-2.769 10.384.351 21.433 8.142 28.835l23.038 21.886c2.706 2.57 4.555 5.856 5.348 9.503l5.996 27.582c-5.93 1.637-10.302 7.065-10.302 13.508v18.948c0 7.043 5.223 12.872 11.995 13.862v16.912c0 4.142 3.358 7.5 7.5 7.5s7.5-3.358 7.5-7.5v-16.748h17.914v269.114c0 4.142 3.358 7.5 7.5 7.5s7.5-3.358 7.5-7.5v-269.279c6.772-.989 11.995-6.819 11.995-13.862v-18.948c0-6.19-4.035-11.446-9.608-13.302l1.618-13.348c1.209-9.967 8.115-18.542 17.596-21.846l33.976-11.84c5.4-1.882 11.416-1.464 16.505 1.145 6.459 3.313 10.7 9.607 11.342 16.838l.795 8.942c1.34 15.056 14.683 26.321 29.756 25.118.503-.04 1.003-.094 1.503-.162 11.739-1.588 21.135-11.104 22.848-23.14 3.826-26.877-7.073-53.975-28.444-70.719zm-112.888 103.289v17h-41.904v-17zm126.481-34.683c-.772 5.424-4.888 9.696-10.005 10.389-.23.031-.462.056-.694.075-6.901.549-13.004-4.605-13.617-11.495l-.795-8.942c-1.102-12.392-8.369-23.179-19.439-28.856-8.721-4.472-19.031-5.187-28.286-1.962l-33.975 11.84c-14.845 5.173-25.659 18.599-27.55 34.205l-1.749 14.429h-21.734l-6.576-30.252c-1.435-6.597-4.78-12.542-9.674-17.191l-23.038-21.886c-3.809-3.618-5.333-9.019-3.98-14.095 1.313-4.921 5.019-8.695 9.915-10.095 4.897-1.4 10.038-.157 13.753 3.326l5.746 5.387c7.08 6.637 16.962 9.344 26.435 7.237l63.056-14.012c19.848-4.411 40.413.251 56.418 12.792l2.946 2.308c17.163 13.448 25.916 35.211 22.843 56.798z"/><path d="m224.335 447.709c-4.142 0-7.5 3.358-7.5 7.5v37.14c0 1.257-1.023 2.279-2.279 2.279h-13.356c-1.257 0-2.279-1.023-2.279-2.279v-289.506c0-4.142-3.358-7.5-7.5-7.5s-7.5 3.358-7.5 7.5v289.506c0 9.528 7.751 17.279 17.279 17.279h13.355c9.528 0 17.279-7.751 17.279-17.279v-37.14c.001-4.142-3.357-7.5-7.499-7.5z"/></g></svg>