<svg height="512" viewBox="0 0 512 512" width="512" xmlns="http://www.w3.org/2000/svg"><g><path d="m152 288a88 88 0 1 0 88 88 88.1 88.1 0 0 0 -88-88zm0 160a72 72 0 1 1 72-72 72.081 72.081 0 0 1 -72 72z"/><path d="m152 352a24 24 0 1 0 24 24 24.028 24.028 0 0 0 -24-24zm0 32a8 8 0 1 1 8-8 8.009 8.009 0 0 1 -8 8z"/><path d="m416 424a24 24 0 1 0 24 24 24.028 24.028 0 0 0 -24-24zm0 32a8 8 0 1 1 8-8 8.009 8.009 0 0 1 -8 8z"/><path d="m496 440h-32.68a48.094 48.094 0 0 0 -39.32-39.32v-100.68a28.031 28.031 0 0 0 -28-28h-4v-80a8 8 0 0 0 -8-8h-32v-8a8 8 0 0 0 -8-8h-128a8 8 0 0 0 -8 8v8h-32v-84a28.031 28.031 0 0 0 -28-28h-4v-32a8 8 0 0 0 -8-8h-48v-8a8 8 0 0 0 -8-8h-64a8 8 0 0 0 -8 8v32a8 8 0 0 0 8 8h64a8 8 0 0 0 8-8v-8h40v210.41a120.077 120.077 0 1 0 130.1 61.59h149.9v80.68a48 48 0 1 0 55.32 55.32h32.68a8 8 0 0 0 0-16zm-424-392h-48v-16h48zm152 136h112v16h-112zm-48 16h32v8a8 8 0 0 0 8 8h128a8 8 0 0 0 8-8v-8h24v72h-164.18a119.411 119.411 0 0 0 -35.82-13.59zm-32-112h4a12.01 12.01 0 0 1 12 12v156h-16zm8 392a104 104 0 1 1 104-104 104.112 104.112 0 0 1 -104 104zm95.94-176a120.518 120.518 0 0 0 -14.45-16h162.51a12.01 12.01 0 0 1 12 12v4zm168.06 176a32 32 0 1 1 32-32 32.042 32.042 0 0 1 -32 32z"/></g></svg>