<?xml version="1.0" encoding="iso-8859-1"?>
<!-- Generator: Adobe Illustrator 19.0.0, SVG Export Plug-In . SVG Version: 6.00 Build 0)  -->
<svg version="1.1" id="Capa_1" xmlns="http://www.w3.org/2000/svg" xmlns:xlink="http://www.w3.org/1999/xlink" x="0px" y="0px"
	 viewBox="0 0 480 480" style="enable-background:new 0 0 480 480;" xml:space="preserve">
<g>
	<g>
		<path d="M440,432V312c0-22.056-17.944-40-40-40h-8v-24c0-4.416-3.576-8-8-8h-48v-8v-22.664V208h-0.064
			c-0.448-16.544-9.032-31.088-21.936-39.712c13.216-8.552,22-23.4,22-40.288c0-26.472-21.528-48-48-48s-48,21.528-48,48
			c0,16.336,8.216,30.776,20.72,39.448c-13.096,8.144-22.184,22.24-23.272,38.6l-3.72,55.728l-19.264-26.48
			C212.96,233.224,210.56,232,208,232h-40v-8c0-4.416-3.576-8-8-8H96v-56v-16c0-16.688-8.568-31.392-21.52-40
			C87.44,95.392,96,80.688,96,64c0-26.472-21.528-48-48-48S0,37.528,0,64c0,16.688,8.568,31.392,21.52,40
			C8.568,112.608,0,127.312,0,144v280c0,22.056,17.944,40,40,40h16h32c4.424,0,8-3.584,8-8V264h64c4.424,0,8-3.584,8-8v-8h35.928
			l28.136,38.688l-0.048,0.776l0.648,0.04l18.56,25.52C225.584,326.376,208,353.152,208,384c0,44.112,35.888,80,80,80
			s80-35.888,80-80c0-18.024-6.064-34.608-16.152-48H384v72c0,22.056,17.944,40,40,40h56v-16H440z M16,64c0-17.648,14.352-32,32-32
			s32,14.352,32,32S65.648,96,48,96S16,81.648,16,64z M152,248H72c-4.416,0-8-3.592-8-8v-80H48v80c0,13.232,10.768,24,24,24h8v184
			H64V280H48v168h-8c-13.232,0-24-10.768-24-24V144c0-17.648,14.352-32,32-32s32,14.352,32,32v16v64c0,4.416,3.576,8,8,8h64V248z
			 M256,128c0-17.648,14.352-32,32-32s32,14.352,32,32s-14.352,32-32,32S256,145.648,256,128z M352,384c0,35.288-28.712,64-64,64
			c-35.288,0-64-28.712-64-64c0-27.672,17.688-51.232,42.328-60.144c5.296-1.912,10.704-3.088,16.104-3.576
			c0.2-0.016,0.4-0.016,0.6-0.032c2.272-0.184,4.536-0.216,6.792-0.16c0.712,0.024,1.424,0.064,2.136,0.104
			c1.856,0.112,3.704,0.312,5.536,0.584c0.68,0.104,1.368,0.192,2.048,0.312c2.304,0.424,4.584,0.944,6.824,1.616
			c0.12,0.032,0.24,0.056,0.36,0.096c2.392,0.736,4.736,1.64,7.04,2.656c0.528,0.232,1.04,0.504,1.56,0.752
			c1.736,0.824,3.448,1.728,5.112,2.712c0.608,0.36,1.216,0.72,1.816,1.104c1.768,1.128,3.496,2.344,5.16,3.656
			C342.352,345.408,352,363.584,352,384z M424,432c-13.232,0-24-10.768-24-24v-80c0-4.416-3.576-8-8-8h-56.048
			c-0.44-0.328-0.92-0.584-1.368-0.904c-1.6-1.152-3.248-2.232-4.928-3.264c-0.672-0.408-1.336-0.84-2.024-1.232
			c-10.064-5.768-21.48-9.392-33.664-10.296c-0.12-0.008-0.232-0.008-0.352-0.016c-1.864-0.136-3.72-0.288-5.616-0.288
			c-0.896,0-1.76,0.104-2.648,0.136c-0.496,0.016-1,0.048-1.496,0.08c-2.488,0.128-4.944,0.368-7.376,0.72
			c-0.536,0.08-1.064,0.16-1.6,0.248c-2.64,0.44-5.224,1-7.768,1.688c-0.168,0.048-0.344,0.064-0.512,0.112l-18.184-25l4.992-74.864
			c1.16-17.456,15.768-31.12,33.264-31.12C305.048,176,320,190.952,320,209.336V232v16c0,4.416,3.576,8,8,8h48v16h-16h-48
			c-4.416,0-8-3.592-8-8v-40h-16v40c0,13.232,10.768,24,24,24h48h24h16c13.232,0,24,10.768,24,24V432z"/>
	</g>
</g>
<g>
</g>
<g>
</g>
<g>
</g>
<g>
</g>
<g>
</g>
<g>
</g>
<g>
</g>
<g>
</g>
<g>
</g>
<g>
</g>
<g>
</g>
<g>
</g>
<g>
</g>
<g>
</g>
<g>
</g>
</svg>
