<svg width="820" height="820" viewBox="0 0 820 820" fill="none" xmlns="http://www.w3.org/2000/svg">
<g clip-path="url(#clip0)">
<path d="M234.637 308H384.237C401.837 308 416.237 293.6 416.237 276C416.237 258.4 401.837 244 384.237 244H328.237C323.437 244 320.237 247.2 320.237 252V260H225.037C175.437 260 133.837 298.4 129.037 348L104.237 650.4C81.037 663.2 73.037 692.8 86.637 716C99.437 739.2 129.037 747.2 152.237 733.6C175.437 720.8 183.437 691.2 169.837 668C165.837 660.8 160.237 655.2 153.037 651.2L163.437 532H314.637L328.237 668.8V692H320.237C315.437 692 312.237 695.2 312.237 700V732C312.237 736.8 315.437 740 320.237 740H384.237C389.037 740 392.237 736.8 392.237 732V700C392.237 695.2 389.037 692 384.237 692H376.237V668V667.2L357.037 446.4C354.637 413.6 326.637 388 293.037 388H176.237L178.637 359.2C181.837 330.4 205.837 308 234.637 308ZM368.237 260H384.237C393.037 260 400.237 267.2 400.237 276C400.237 284.8 393.037 292 384.237 292H368.237V260ZM336.237 260H352.237V292H336.237V260ZM304.237 276H320.237V292H304.237V276ZM160.237 692C160.237 709.6 145.837 724 128.237 724C110.637 724 96.237 709.6 96.237 692C96.237 674.4 110.637 660 128.237 660C145.837 660 160.237 674.4 160.237 692ZM165.037 516L166.637 500H311.437L313.037 516H165.037ZM168.237 484L172.237 436H290.637C298.637 436 305.837 442.4 306.637 450.4L309.837 484H168.237ZM376.237 724H328.237V708H376.237V724ZM360.237 692H344.237V676H360.237V692ZM293.037 404C317.837 404 338.637 423.2 341.037 448L359.437 660H343.437L322.637 448.8C321.037 432.8 307.437 420 290.637 420H173.837L175.437 404H293.037ZM162.637 357.6L137.037 644.8C134.637 644 131.437 644 128.237 644C125.837 644 123.437 644 121.037 644.8L145.837 349.6C149.037 308 183.437 276 225.037 276H288.237V292H234.637C197.037 292 165.837 320 162.637 357.6Z" fill="black"/>
<path d="M128.237 668C114.637 668 104.237 678.4 104.237 692C104.237 705.6 114.637 716 128.237 716C141.837 716 152.237 705.6 152.237 692C152.237 678.4 141.837 668 128.237 668ZM128.237 700C123.437 700 120.237 696.8 120.237 692C120.237 687.2 123.437 684 128.237 684C133.037 684 136.237 687.2 136.237 692C136.237 696.8 133.037 700 128.237 700Z" fill="black"/>
</g>
<g clip-path="url(#clip1)">
<path d="M563.636 153.849C585.696 153.849 603.578 134.04 603.578 109.603C603.578 85.167 585.696 65.3575 563.636 65.3575C541.577 65.3575 523.694 85.167 523.694 109.603C523.694 134.04 541.577 153.849 563.636 153.849Z" fill="#010002"/>
<path d="M673.542 263.332C640.65 242.24 613.661 213.75 590.943 180.234C576.668 157.996 538.926 159.156 523.59 179.534C500.26 204.679 480.465 230.595 464.764 256.525C458.346 267.147 460.897 281.518 470.479 288.628C474.053 291.281 478.082 292.55 482.086 292.55C488.816 292.55 495.43 288.952 499.453 282.289C506.346 270.918 514.164 259.51 522.822 248.153C522.49 272.187 523.577 315.553 524.124 335.044C524.306 341.534 522.972 347.88 520.251 353.641C498.717 399.192 484.943 442.292 470.961 495.017C467.537 507.889 474.196 521.395 485.809 525.181C488.439 526.039 491.095 526.327 493.659 526.111C502.499 525.361 510.402 518.691 513.045 508.725C525.946 460.11 538.412 420.745 557.856 379.067C558.845 379.11 559.835 379.11 560.837 379.059C573.251 420.089 585.671 461.141 598.104 502.171C607.132 532.074 649.021 516.542 639.966 486.631C626.381 441.772 612.815 396.935 599.275 352.083C598.488 349.509 596.581 339.428 596.314 336.14C594.074 308.508 593.261 280.963 593.502 253.381C612.561 273.608 633.697 291.152 657.177 306.222C680.592 321.279 696.644 278.165 673.542 263.332Z" fill="#010002"/>
</g>
<defs>
<clipPath id="clip0">
<rect width="496.237" height="496.237" fill="white" transform="translate(0 244)"/>
</clipPath>
<clipPath id="clip1">
<rect width="416" height="460.825" fill="white" transform="translate(365 65.3575)"/>
</clipPath>
</defs>
</svg>
