<?xml version="1.0" encoding="iso-8859-1"?>
<!-- Generator: Adobe Illustrator 16.0.0, SVG Export Plug-In . SVG Version: 6.00 Build 0)  -->
<!DOCTYPE svg PUBLIC "-//W3C//DTD SVG 1.1//EN" "http://www.w3.org/Graphics/SVG/1.1/DTD/svg11.dtd">
<svg version="1.1" id="Capa_1" xmlns="http://www.w3.org/2000/svg" xmlns:xlink="http://www.w3.org/1999/xlink" x="0px" y="0px"
	 width="500.001px" height="500.002px" viewBox="0 0 500.001 500.002" style="enable-background:new 0 0 500.001 500.002;"
	 xml:space="preserve">
<g>
	<g>
		<path d="M499.064,280.991c-4.25-9.008-104.31-220.88-121.272-243.901c-15.28-20.739-42.952-26.271-56.894-26.271
			c-1.638,0-3.201,0.07-4.649,0.208c-7.815,0.747-14.893,3.641-20.792,8.305c-0.37,0.257-0.723,0.534-1.053,0.838
			c-4.808,4.07-8.768,9.367-11.609,15.701c-22.859,50.922-26.099,57.809-27.482,60.75c-0.952,2.025-1.062,2.258-5.312,11.945
			c-4.25-9.687-4.358-9.92-5.312-11.945c-1.383-2.941-4.623-9.827-27.482-60.75c-2.945-6.561-7.098-11.998-12.14-16.123
			c-0.367-0.342-0.761-0.654-1.178-0.938c-5.766-4.362-12.61-7.063-20.137-7.783c-1.448-0.138-3.013-0.208-4.649-0.208
			c-13.942,0-41.614,5.533-56.894,26.271C105.247,60.111,5.188,271.983,0.938,280.991c-2.302,4.877-0.221,10.694,4.651,13.008
			l43.65,20.715c4.801,2.279,10.541,0.308,12.928-4.438l73.471-146.118c0.631,57.354,5.346,304.22,5.561,315.435
			c0.102,5.326,4.448,9.59,9.775,9.59h98.827c0.006,0,0.012,0,0.018,0c0.064,0,0.126-0.008,0.189-0.008
			c0.064,0,0.127,0.008,0.192,0.008h98.828c5.328,0,9.674-4.264,9.774-9.59c0.216-11.215,4.931-258.08,5.562-315.435l73.47,146.118
			c2.387,4.747,8.128,6.718,12.929,4.438l43.651-20.715C499.285,291.687,501.365,285.868,499.064,280.991z M160.568,469.626
			c-0.967-50.943-5.443-288.026-5.443-314.729c0-7.379-0.437-12.831-1.337-16.667c-2.456-10.47-9.397-11.601-12.267-11.601
			c-8.9,0-13.759,9.663-17.663,17.428L48.989,292.95l-26.197-12.433C54.203,214.159,125.397,65.732,137.953,48.691
			c9.901-13.438,30.033-18.316,41.15-18.316c1.018,0,1.955,0.04,2.788,0.12c2.457,0.235,4.615,0.834,6.51,1.687l-4.089,101.578
			c-0.116,2.894,1.057,5.69,3.203,7.637c1.81,1.641,4.156,2.535,6.567,2.535c0.448,0,0.897-0.032,1.346-0.093l44.336-6.159
			c0.008,109.556,0.198,288.363,0.247,331.945H160.568z M451.011,292.95l-74.866-148.894c-3.904-7.765-8.764-17.428-17.663-17.428
			c-2.87,0-9.812,1.131-12.269,11.601c-0.898,3.836-1.337,9.289-1.337,16.667c0,26.703-4.476,263.784-5.441,314.729h-79.444
			c0.048-43.568,0.238-222.274,0.246-331.839l44.095,6.053c0.444,0.062,0.888,0.092,1.33,0.092c2.42,0,4.773-0.9,6.585-2.55
			c2.143-1.953,3.31-4.756,3.184-7.652l-4.396-101.268c2.031-0.995,4.367-1.708,7.076-1.966c0.832-0.08,1.771-0.12,2.788-0.12
			c11.115,0,31.248,4.878,41.149,18.316c12.557,17.041,83.75,165.467,115.161,231.826L451.011,292.95z"/>
	</g>
</g>
<g>
</g>
<g>
</g>
<g>
</g>
<g>
</g>
<g>
</g>
<g>
</g>
<g>
</g>
<g>
</g>
<g>
</g>
<g>
</g>
<g>
</g>
<g>
</g>
<g>
</g>
<g>
</g>
<g>
</g>
</svg>
