<svg width="291" height="367" viewBox="0 0 291 367" fill="none" xmlns="http://www.w3.org/2000/svg">
<path d="M68.8869 32.0095C71.3385 30.2121 71.2677 30.349 88.5049 20.5999C88.5425 20.581 88.5764 20.5585 88.614 20.5397C79.5743 7.82087 64.8166 0 48.8174 0C21.9015 0 0 21.9015 0 48.8174V189.973C0 191.011 0.842653 191.854 1.88092 191.854H20.6901C21.7284 191.854 22.5711 191.011 22.5711 189.973V48.8174C22.5711 34.2854 34.4434 22.4733 48.998 22.5711C56.8001 22.6237 63.9965 26.2125 68.8869 32.0095V32.0095Z" fill="black"/>
<path d="M106.167 132.265C109.241 131.753 111.318 128.845 110.805 125.771L109.934 120.545C109.421 117.471 106.514 115.395 103.44 115.907C100.366 116.419 98.2894 119.327 98.8018 122.401L99.6734 127.627C100.186 130.701 103.093 132.778 106.167 132.265Z" fill="black"/>
<path d="M134.787 116.587C137.504 115.062 138.471 111.622 136.946 108.905L134.506 104.558C132.981 101.84 129.541 100.873 126.824 102.399C124.106 103.924 123.139 107.364 124.665 110.081L127.104 114.428C128.631 117.148 132.073 118.111 134.787 116.587Z" fill="black"/>
<path d="M163.078 100.325C165.117 97.9684 164.859 94.4048 162.503 92.3658L158.495 88.8989C156.138 86.8604 152.575 87.1181 150.536 89.4745C148.497 91.8313 148.755 95.3949 151.111 97.4338L155.119 100.901C157.476 102.94 161.039 102.682 163.078 100.325Z" fill="black"/>
<path d="M112.347 154.033C111.897 150.949 109.033 148.815 105.949 149.263C102.865 149.713 100.729 152.577 101.179 155.661L101.969 161.081C102.419 164.168 105.286 166.3 108.367 165.851C111.451 165.401 113.586 162.537 113.137 159.453L112.347 154.033Z" fill="black"/>
<path d="M137.109 138.638C135.941 135.748 132.652 134.353 129.763 135.521C126.873 136.688 125.478 139.978 126.646 142.867L128.578 147.646C129.746 150.536 133.036 151.93 135.924 150.763C138.813 149.595 140.208 146.306 139.041 143.417L137.109 138.638Z" fill="black"/>
<path d="M161.522 123.293C159.664 120.791 156.13 120.269 153.628 122.127C151.126 123.985 150.603 127.519 152.461 130.021L155.535 134.16C157.392 136.662 160.927 137.183 163.429 135.326C165.931 133.468 166.453 129.933 164.595 127.431L161.522 123.293Z" fill="black"/>
<path d="M189.925 111.718L185.71 108.22C183.312 106.23 179.754 106.561 177.764 108.959C175.773 111.357 176.104 114.914 178.502 116.905L182.717 120.402C185.115 122.393 188.673 122.062 190.663 119.664C192.653 117.265 192.322 113.708 189.925 111.718Z" fill="black"/>
<path d="M69.8875 79.3638L132.714 43.8257L130.92 40.6507C123.597 27.6945 107.141 23.0283 94.0611 30.4222C77.1009 40.0127 76.8311 40.0198 74.4732 41.9523C64.6894 49.9439 61.3756 64.3262 68.0894 76.185L69.8875 79.3638Z" fill="black"/>
<path d="M155.229 56.3977L152.738 51.9964C151.197 49.2574 147.706 48.3113 144.996 49.8446C141.734 51.6856 70.2498 92.1191 68.7326 92.9779C66.0309 94.5011 65.0329 97.971 66.5846 100.72L69.075 105.125C71.156 108.804 75.8169 110.096 79.499 108.018L152.336 66.8218C156.01 64.7396 157.312 60.0813 155.229 56.3977V56.3977Z" fill="black"/>
<path d="M204.127 174.888C214.865 174.888 223.571 166.182 223.571 155.444C223.571 144.705 214.865 136 204.127 136C193.388 136 184.683 144.705 184.683 155.444C184.683 166.182 193.388 174.888 204.127 174.888Z" fill="#010002"/>
<path d="M196.029 184.34C200.788 183.218 206.055 183.175 210.9 184.159C244.861 186.557 255.862 224.944 252.829 254.065C251.543 266.395 232.095 266.52 233.398 254.065C234.546 242.99 233.942 225.902 227.324 214.698C227.16 228.698 227.695 242.719 227.725 256.727C227.928 257.602 228.062 258.513 228.062 259.513C228.062 291.779 228.109 248.206 229.442 280.446H179.126C180.46 248.206 180.516 291.779 180.516 259.513C180.516 259.289 180.567 259.104 180.58 258.884C180.559 258.422 180.511 257.973 180.511 257.494V216.834C174.985 227.986 174.523 243.676 175.602 254.073C176.9 266.537 157.457 266.407 156.171 254.073C153.207 225.544 163.703 188.128 196.029 184.34Z" fill="black"/>
</svg>
