<svg width="276" height="333" viewBox="0 0 276 333" fill="none" xmlns="http://www.w3.org/2000/svg">
<path d="M85.4055 158.73C88.3016 159.127 91.2214 159.325 94.1445 159.322C115.965 159.322 133.059 148.866 133.059 135.517C133.041 132.645 132.25 129.831 130.769 127.37C126.27 119.872 123.841 111.315 123.73 102.572L123.73 76.527C123.746 71.7639 124.497 67.0319 125.958 62.4983C127.818 62.8772 129.745 62.7704 131.552 62.188C133.36 61.6057 134.986 60.5675 136.276 59.1736C137.565 57.7797 138.473 56.0771 138.913 54.23C139.353 52.3829 139.31 50.4536 138.787 48.6281C141.362 47.2182 143.406 45.0049 144.606 42.3257C145.806 39.6465 146.098 36.6483 145.436 33.7881C144.773 30.9279 143.194 28.3627 140.939 26.4834C138.683 24.6042 135.875 23.5139 132.943 23.3789C132.214 21.2235 130.853 19.3376 129.037 17.9669C127.221 16.5963 125.034 15.8046 122.761 15.695C120.489 15.5853 118.236 16.1628 116.296 17.3523C114.357 18.5417 112.821 20.2878 111.888 22.3631C106.134 20.6273 100.154 19.7578 94.1445 19.7832C91.2129 19.7822 88.2846 19.979 85.3795 20.3725C82.5077 19.9805 79.6127 19.7836 76.7143 19.7832C54.8939 19.7832 37.8 30.2395 37.8 43.59C37.8181 46.4621 38.6091 49.2763 40.09 51.7371C44.5874 59.2324 47.0161 67.7866 47.1283 76.527L47.1283 102.573C44.0342 103.481 41.3885 105.507 39.7058 108.258C38.0231 111.009 37.4237 114.287 38.0242 117.455C36.3861 118.096 34.9147 119.101 33.7207 120.393C32.5267 121.685 31.6411 123.23 31.1305 124.914C30.62 126.597 30.4977 128.375 30.7729 130.112C31.0481 131.85 31.7137 133.502 32.7195 134.946C31.115 136.617 30.0032 138.698 29.5066 140.961C29.307 141.864 29.2062 142.787 29.2059 143.712C29.2116 145.98 29.8265 148.206 30.9862 150.155C32.146 152.105 33.808 153.707 35.7988 154.795C37.7895 155.882 40.0358 156.415 42.3029 156.338C44.5701 156.261 46.7749 155.576 48.6869 154.355C49.2798 153.973 49.84 153.541 50.3617 153.066C58.4793 157.335 67.544 159.485 76.7143 159.314C79.6212 159.317 82.525 159.122 85.4055 158.73V158.73ZM53.2561 149.218C53.6602 148.388 53.9728 147.517 54.1885 146.62C55.8777 146.722 57.5721 146.544 59.2033 146.094C62.0754 149.506 65.6629 152.244 69.7115 154.115C63.9729 153.5 58.3957 151.838 53.2561 149.212L53.2561 149.218ZM124.487 144.059C121.768 146.818 118.519 148.999 114.935 150.469C114.342 149.554 114.028 148.488 114.029 147.398C114.031 145.869 114.639 144.403 115.72 143.321C116.802 142.24 118.268 141.632 119.797 141.63C120.717 141.626 121.624 141.845 122.441 142.267C123.259 142.689 123.962 143.302 124.492 144.054L124.487 144.059ZM118.945 102.572C119.057 112.162 121.712 121.55 126.638 129.779C127.689 131.508 128.256 133.488 128.279 135.512C128.268 137.054 127.927 138.577 127.278 139.977C126.304 138.983 125.142 138.193 123.859 137.655C122.576 137.116 121.198 136.839 119.807 136.839C117.009 136.842 114.326 137.955 112.348 139.934C110.369 141.912 109.257 144.594 109.253 147.392C109.253 149.047 109.649 150.678 110.407 152.149C105.137 153.749 99.6575 154.552 94.15 154.53C81.3217 154.53 69.5734 150.382 63.7492 144.018C65.6558 142.754 67.2577 141.082 68.4395 139.123C69.6212 137.164 70.3531 134.967 70.5824 132.691C70.8117 130.415 70.5327 128.117 69.7655 125.961C68.9982 123.806 67.7619 121.848 66.1459 120.229C68.2405 114.576 69.3252 108.599 69.3506 102.571L69.3506 76.527C69.2388 66.937 66.5841 57.5484 61.6574 49.3199C60.6064 47.5907 60.0397 45.6107 60.0168 43.5873C60.0195 33.2787 75.6451 24.5684 94.1445 24.5684C99.8056 24.5401 105.438 25.3788 110.845 27.0553C110.849 29.7235 111.792 32.3051 113.511 34.3465C112.635 35.552 112.034 36.9348 111.751 38.3976C111.467 39.8604 111.507 41.3675 111.869 42.813C112.231 44.2584 112.905 45.607 113.844 46.7638C114.783 47.9206 115.964 48.8576 117.305 49.5086C116.894 51.5624 117.077 53.6906 117.831 55.6444C118.585 57.5983 119.881 59.2969 121.565 60.5418C119.848 65.6972 118.964 71.0932 118.945 76.527L118.945 102.572ZM120.117 20.8141C121.769 20.2645 123.571 20.3923 125.129 21.1693C126.686 21.9464 127.872 23.3093 128.427 24.9594C128.555 25.3498 128.646 25.7512 128.7 26.1584C128.785 26.778 129.11 27.3396 129.604 27.7229C130.098 28.1062 130.723 28.2808 131.344 28.2092C133.466 27.9686 135.602 28.519 137.343 29.7551C139.085 30.9912 140.309 32.8261 140.781 34.9085C141.254 36.9909 140.942 39.1745 139.905 41.0412C138.868 42.9079 137.179 44.3266 135.162 45.0256C135.112 45.0379 134.989 45.0721 134.941 45.0885C134.602 45.197 134.292 45.3799 134.033 45.6238C133.773 45.8677 133.572 46.1664 133.442 46.4981C133.313 46.8298 133.26 47.1862 133.286 47.5412C133.312 47.8962 133.417 48.241 133.593 48.5502C133.799 48.9098 133.968 49.2885 134.101 49.6809C134.427 50.6529 134.511 51.6901 134.344 52.7019C134.177 53.7137 133.765 54.6691 133.143 55.4847C132.522 56.3004 131.71 56.9513 130.779 57.3806C129.847 57.8098 128.825 58.0044 127.801 57.9473C126.777 57.8902 125.783 57.5831 124.905 57.0529C124.028 56.5227 123.293 55.7855 122.766 54.9058C122.239 54.0261 121.936 53.0307 121.883 52.0067C121.829 50.9826 122.028 49.9611 122.46 49.0314C122.613 48.7035 122.688 48.3453 122.682 47.9839C122.676 47.6224 122.588 47.267 122.425 46.9444C122.261 46.6219 122.027 46.3406 121.739 46.1216C121.452 45.9027 121.118 45.7519 120.764 45.6805C119.743 45.4854 118.8 45.0021 118.045 44.2878C117.29 43.5734 116.756 42.6579 116.505 41.6494C116.255 40.641 116.298 39.5819 116.63 38.5973C116.963 37.6128 117.57 36.744 118.381 36.0938C118.672 35.8707 118.905 35.5796 119.058 35.246C119.211 34.9123 119.281 34.5463 119.26 34.1797C119.251 33.8155 119.159 33.458 118.992 33.1346C118.824 32.8112 118.585 32.5303 118.292 32.3135C117.326 31.5992 116.575 30.6336 116.121 29.522C115.666 28.4103 115.525 27.1952 115.713 26.009C115.901 24.8228 116.412 23.7111 117.188 22.7948C117.965 21.8785 118.978 21.1929 120.117 20.8127L120.117 20.8141ZM44.2217 49.3227C43.1707 47.5935 42.604 45.6135 42.581 43.59C42.581 34.6445 54.3484 26.9104 69.5447 25.0141C60.7646 29.3439 55.2344 35.9967 55.2344 43.59C55.2525 46.4621 56.0435 49.2763 57.5244 51.7371C62.0218 59.2324 64.4505 67.7866 64.5627 76.527L64.5627 102.572C64.5548 105.822 64.1973 109.063 63.4963 112.237C62.9193 109.523 61.4798 107.069 59.3928 105.241C57.3059 103.414 54.6835 102.31 51.9176 102.096L51.9176 76.5297C51.805 66.9395 49.1493 57.5509 44.2217 49.3227ZM40.1762 151.378C38.6733 151.049 37.3 150.286 36.2263 149.184C35.1526 148.082 34.4256 146.69 34.1353 145.179C33.845 143.668 34.0041 142.105 34.5931 140.684C35.182 139.262 36.1748 138.045 37.4486 137.182C37.7477 136.979 37.9967 136.711 38.1772 136.397C38.3576 136.084 38.4647 135.734 38.4904 135.373C38.4904 135.316 38.4904 135.26 38.4904 135.204C38.4905 134.871 38.4209 134.541 38.2863 134.237C38.1516 133.932 37.9548 133.659 37.7084 133.435C36.7284 132.559 36.0194 131.422 35.6651 130.157C35.3108 128.891 35.3259 127.551 35.7087 126.294C36.0916 125.037 36.8261 123.916 37.8255 123.063C38.825 122.21 40.0477 121.661 41.3492 121.48C41.7091 121.427 42.0521 121.293 42.3522 121.087C42.6523 120.882 42.9016 120.61 43.0812 120.294C43.2607 119.978 43.3657 119.624 43.3883 119.261C43.4108 118.898 43.3503 118.535 43.2113 118.199C42.6864 116.945 42.4803 115.581 42.6113 114.229C42.7423 112.876 43.2064 111.577 43.9621 110.448C44.7178 109.319 45.7415 108.394 46.9418 107.757C48.142 107.12 49.4815 106.79 50.8403 106.797C52.1992 106.804 53.5352 107.148 54.7288 107.797C55.9225 108.446 56.9366 109.381 57.6806 110.519C58.4246 111.656 58.8753 112.959 58.9924 114.313C59.1095 115.667 58.8893 117.029 58.3516 118.277C58.1071 118.852 58.0976 119.5 58.325 120.083C58.5524 120.665 58.9987 121.135 59.5684 121.393C61.4732 122.256 63.0837 123.658 64.2012 125.426C65.3186 127.194 65.8943 129.251 65.857 131.342C65.8198 133.433 65.1714 135.467 63.9917 137.195C62.8121 138.922 61.1527 140.266 59.2184 141.061C59.1979 141.069 59.1787 141.08 59.1596 141.088C57.1792 141.902 54.9977 142.093 52.906 141.635C52.8678 141.623 52.7406 141.589 52.701 141.578C52.3529 141.493 51.9902 141.487 51.6395 141.561C51.2889 141.635 50.9594 141.786 50.6751 142.005C50.3909 142.223 50.1593 142.502 49.9974 142.822C49.8355 143.141 49.7474 143.493 49.7396 143.851C49.7291 144.37 49.6682 144.887 49.5578 145.394C49.3352 146.404 48.9158 147.36 48.3235 148.208C47.7313 149.056 46.9778 149.779 46.1061 150.336C45.2344 150.892 44.2615 151.272 43.2431 151.453C42.2247 151.633 41.1807 151.612 40.1707 151.389L40.1762 151.378Z" fill="black"/>
<path d="M110.901 48.4203C110.901 46.9399 110.462 45.4926 109.639 44.2617C108.817 43.0307 107.648 42.0713 106.28 41.5048C104.912 40.9382 103.407 40.79 101.955 41.0788C100.503 41.3676 99.1693 42.0805 98.1225 43.1274C97.0756 44.1742 96.3627 45.508 96.0739 46.96C95.7851 48.412 95.9333 49.9171 96.4999 51.2848C97.0664 52.6526 98.0258 53.8217 99.2568 54.6442C100.488 55.4667 101.935 55.9057 103.415 55.9057C105.4 55.9035 107.303 55.1142 108.706 53.7109C110.109 52.3076 110.899 50.4049 110.901 48.4203ZM100.717 48.4203C100.717 47.8863 100.875 47.3642 101.172 46.9202C101.468 46.4761 101.89 46.13 102.383 45.9257C102.877 45.7213 103.42 45.6678 103.944 45.772C104.467 45.8762 104.948 46.1334 105.326 46.511C105.704 46.8886 105.961 47.3698 106.065 47.8935C106.169 48.4173 106.116 48.9602 105.911 49.4536C105.707 49.947 105.361 50.3687 104.917 50.6654C104.473 50.9622 103.951 51.1205 103.417 51.1205C102.701 51.1198 102.014 50.8351 101.508 50.3288C101.002 49.8226 100.717 49.1362 100.717 48.4203Z" fill="black"/>
<path d="M82.7436 119.777C82.7433 121.528 83.2625 123.241 84.2354 124.697C85.2084 126.154 86.5914 127.289 88.2096 127.96C89.8279 128.63 91.6086 128.806 93.3267 128.465C95.0448 128.123 96.623 127.28 97.8618 126.041C99.1006 124.803 99.9444 123.225 100.286 121.507C100.628 119.789 100.453 118.008 99.7832 116.39C99.1131 114.771 97.9781 113.388 96.5218 112.415C95.0655 111.441 93.3532 110.922 91.6016 110.921C89.2534 110.923 87.002 111.857 85.3414 113.517C83.6807 115.177 82.7465 117.428 82.7436 119.777V119.777ZM95.6703 119.777C95.6706 120.582 95.432 121.369 94.9846 122.039C94.5373 122.709 93.9013 123.231 93.1572 123.539C92.4131 123.848 91.5943 123.928 90.8044 123.771C90.0144 123.614 89.2888 123.226 88.7194 122.656C88.1499 122.087 87.7622 121.361 87.6053 120.571C87.4484 119.781 87.5294 118.962 87.8379 118.218C88.1465 117.474 88.6687 116.839 89.3387 116.391C90.0086 115.944 90.7961 115.706 91.6016 115.706C92.6803 115.708 93.7144 116.138 94.4771 116.901C95.2398 117.664 95.6689 118.698 95.6703 119.777V119.777Z" fill="black"/>
<path d="M78.7609 69.0936C78.7609 70.5997 79.2076 72.072 80.0443 73.3244C80.8811 74.5767 82.0705 75.5527 83.462 76.1291C84.8535 76.7055 86.3846 76.8563 87.8618 76.5625C89.339 76.2686 90.696 75.5434 91.761 74.4783C92.826 73.4133 93.5513 72.0564 93.8451 70.5792C94.1389 69.102 93.9881 67.5708 93.4117 66.1793C92.8354 64.7878 91.8593 63.5985 90.607 62.7617C89.3547 61.925 87.8823 61.4783 86.3762 61.4783C84.3572 61.4805 82.4215 62.2835 80.9938 63.7112C79.5661 65.1388 78.7631 67.0745 78.7609 69.0936ZM89.2063 69.0936C89.2063 69.6533 89.0403 70.2005 88.7293 70.6659C88.4183 71.1313 87.9763 71.494 87.4592 71.7082C86.9421 71.9224 86.373 71.9785 85.8241 71.8693C85.2751 71.7601 84.7708 71.4905 84.375 71.0947C83.9792 70.6989 83.7097 70.1947 83.6005 69.6457C83.4913 69.0967 83.5473 68.5277 83.7615 68.0105C83.9757 67.4934 84.3385 67.0514 84.8039 66.7404C85.2693 66.4295 85.8164 66.2635 86.3762 66.2635C87.1265 66.2642 87.846 66.5626 88.3765 67.0932C88.9071 67.6238 89.2055 68.3432 89.2063 69.0936V69.0936Z" fill="black"/>
<path d="M98.9338 95.8234C98.9338 97.3296 99.3804 98.8019 100.217 100.054C101.054 101.307 102.243 102.283 103.635 102.859C105.026 103.435 106.557 103.586 108.035 103.292C109.512 102.999 110.869 102.273 111.934 101.208C112.999 100.143 113.724 98.7863 114.018 97.3091C114.312 95.8319 114.161 94.3007 113.585 92.9092C113.008 91.5177 112.032 90.3284 110.78 89.4916C109.528 88.6548 108.055 88.2082 106.549 88.2082C104.53 88.2107 102.595 89.0139 101.167 90.4415C99.7395 91.869 98.9363 93.8045 98.9338 95.8234V95.8234ZM109.38 95.8234C109.38 96.3832 109.214 96.9303 108.904 97.3957C108.593 97.8612 108.151 98.2239 107.633 98.4381C107.116 98.6523 106.547 98.7083 105.998 98.5991C105.449 98.4899 104.945 98.2204 104.549 97.8246C104.153 97.4288 103.884 96.9245 103.775 96.3756C103.665 95.8266 103.722 95.2575 103.936 94.7404C104.15 94.2233 104.513 93.7813 104.978 93.4703C105.443 93.1593 105.991 92.9934 106.55 92.9934C107.3 92.9959 108.018 93.295 108.547 93.8254C109.076 94.3557 109.374 95.0741 109.375 95.8234L109.38 95.8234Z" fill="black"/>
<path d="M81.0455 43.3275C81.0455 42.124 80.6886 40.9474 80.0199 39.9467C79.3513 38.946 78.4009 38.166 77.2889 37.7054C76.177 37.2448 74.9534 37.1243 73.773 37.3591C72.5925 37.5939 71.5082 38.1735 70.6572 39.0245C69.8061 39.8756 69.2265 40.9599 68.9917 42.1403C68.7569 43.3208 68.8774 44.5444 69.338 45.6563C69.7986 46.7683 70.5786 47.7187 71.5793 48.3873C72.5801 49.056 73.7566 49.4129 74.9602 49.4129C76.5735 49.4111 78.1203 48.7694 79.2612 47.6285C80.402 46.4877 81.0437 44.9409 81.0455 43.3275V43.3275ZM73.6627 43.3275C73.6627 43.0704 73.739 42.819 73.8818 42.6052C74.0247 42.3914 74.2278 42.2247 74.4653 42.1263C74.7029 42.0279 74.9643 42.0022 75.2166 42.0523C75.4688 42.1025 75.7004 42.2263 75.8823 42.4082C76.0641 42.59 76.1879 42.8217 76.2381 43.0739C76.2883 43.3261 76.2625 43.5875 76.1641 43.8251C76.0657 44.0627 75.8991 44.2657 75.6852 44.4086C75.4714 44.5515 75.2201 44.6277 74.9629 44.6277C74.7919 44.6281 74.6224 44.5947 74.4643 44.5296C74.3061 44.4644 74.1624 44.3687 74.0413 44.248C73.9201 44.1272 73.824 43.9838 73.7583 43.8258C73.6927 43.6679 73.6588 43.4986 73.6586 43.3275L73.6627 43.3275Z" fill="black"/>
<path d="M76.4353 143.072C76.4353 144.276 76.7922 145.452 77.4609 146.453C78.1296 147.454 79.08 148.234 80.1919 148.694C81.3039 149.155 82.5274 149.275 83.7079 149.041C84.8883 148.806 85.9726 148.226 86.8237 147.375C87.6747 146.524 88.2543 145.44 88.4891 144.259C88.7239 143.079 88.6034 141.855 88.1428 140.743C87.6822 139.631 86.9023 138.681 85.9015 138.012C84.9008 137.344 83.7243 136.987 82.5207 136.987C80.9073 136.989 79.3605 137.63 78.2197 138.771C77.0789 139.912 76.4371 141.459 76.4353 143.072V143.072ZM83.8182 143.072C83.8182 143.329 83.7419 143.581 83.599 143.794C83.4562 144.008 83.2531 144.175 83.0155 144.273C82.7779 144.372 82.5165 144.397 82.2643 144.347C82.0121 144.297 81.7804 144.173 81.5986 143.991C81.4167 143.81 81.2929 143.578 81.2427 143.326C81.1926 143.074 81.2183 142.812 81.3167 142.575C81.4151 142.337 81.5818 142.134 81.7956 141.991C82.0094 141.848 82.2608 141.772 82.518 141.772C82.6889 141.772 82.8582 141.805 83.0161 141.87C83.1741 141.936 83.3177 142.031 83.4387 142.152C83.5597 142.273 83.6557 142.416 83.7213 142.574C83.7869 142.732 83.8207 142.901 83.8209 143.072L83.8182 143.072Z" fill="black"/>
<path d="M127.918 31.9676L127.918 32.0455C127.919 32.6665 128.16 33.2631 128.593 33.7091C129.025 34.155 129.613 34.4155 130.234 34.4353C130.271 34.4353 133.997 34.6268 134.883 37.1861C134.984 37.4847 135.144 37.7604 135.352 37.9971C135.56 38.2338 135.814 38.427 136.097 38.5656C136.38 38.7041 136.688 38.7853 137.003 38.8044C137.318 38.8235 137.633 38.7802 137.931 38.6769C138.229 38.5736 138.504 38.4124 138.74 38.2026C138.975 37.9928 139.167 37.7385 139.304 37.4544C139.44 37.1702 139.52 36.8618 139.537 36.5469C139.554 36.2319 139.509 35.9167 139.404 35.6193C137.832 31.0871 132.995 29.7404 130.38 29.6543C129.747 29.6351 129.133 29.868 128.671 30.3017C128.209 30.7354 127.939 31.3345 127.918 31.9676V31.9676Z" fill="black"/>
<path d="M62.7772 134.544C63.5527 132.339 63.4264 129.917 62.4259 127.805C61.4253 125.693 59.6314 124.062 57.4342 123.266C57.0724 123.127 56.6823 123.078 56.2975 123.124C55.9127 123.169 55.5447 123.308 55.2252 123.527C54.9057 123.746 54.6443 124.04 54.4635 124.382C54.2827 124.725 54.1878 125.107 54.1871 125.494C54.188 125.972 54.3306 126.438 54.5969 126.834C54.8632 127.23 55.2411 127.539 55.6828 127.72C56.2092 127.895 56.6948 128.174 57.1101 128.542C57.5254 128.909 57.8618 129.357 58.099 129.859C58.3362 130.36 58.4692 130.904 58.4901 131.459C58.5109 132.013 58.4192 132.566 58.2203 133.083C58.0313 133.686 58.0885 134.34 58.3794 134.901C58.6704 135.462 59.1715 135.885 59.7733 136.078C60.375 136.27 61.0287 136.217 61.5915 135.93C62.1543 135.642 62.5805 135.144 62.7772 134.544V134.544Z" fill="black"/>
<g clip-path="url(#clip0)">
<path d="M166.465 137.884C166.444 137.422 166.396 136.973 166.396 136.494L213.61 135.727C213.813 136.602 213.946 137.513 213.946 138.513C213.946 170.779 213.994 203.031 215.327 235.271C215.922 249.602 193.7 249.546 193.109 235.271C192.074 210.012 191.819 184.731 191.755 159.446C190.702 159.506 189.649 159.506 188.597 159.437C188.536 184.722 188.273 210.003 187.229 235.271C186.642 249.546 164.42 249.602 165.011 235.271C166.344 203.031 166.4 170.779 166.4 138.513C166.4 138.289 166.452 138.104 166.465 137.884Z" fill="black"/>
</g>
<defs>
<clipPath id="clip0">
<rect width="231" height="231" fill="white" transform="translate(73.9997 102)"/>
</clipPath>
</defs>
</svg>
