<?xml version="1.0"?>
<svg xmlns="http://www.w3.org/2000/svg" id="Layer_1" data-name="Layer 1" viewBox="0 0 512 512" width="512" height="512"><path d="M365.47,47.846V14.88a6,6,0,0,0-6-6H155.93a6,6,0,0,0-6,6V47.815l-5.636,51.858A3414.013,3414.013,0,0,0,125.1,451.729l-.006.182c0,.067,0,.133,0,.2a18.875,18.875,0,0,0,10.44,16.905v28.1a6,6,0,0,0,6,6h46.44a6,6,0,0,0,6-6V469.556a18.714,18.714,0,0,0,11.463-15.032L222.394,320.7a480.974,480.974,0,0,1,12.423-63.461l21.421-72.773L277.584,260.4A480.494,480.494,0,0,1,288.6,318.336l17.3,136.2a18.894,18.894,0,0,0,11.912,15.195V497.12a6,6,0,0,0,6,6h46.45a6,6,0,0,0,6-6V469.088a18.841,18.841,0,0,0,10.59-16.835,3415.419,3415.419,0,0,0-15.779-346.464ZM357.906,94.31H352.32a27.5,27.5,0,0,1-27.47-27.47V54.14h29.171ZM161.312,54.14H189.88v12.7a27.5,27.5,0,0,1-27.47,27.47h-5.463ZM181.97,491.12H147.53V471h34.44Zm182.29,0H329.81V471h34.45ZM374.85,452.2a6.86,6.86,0,0,1-5.646,6.69A6.927,6.927,0,0,1,368,459H324.6c-.114,0-.222,0-.428-.019a6.853,6.853,0,0,1-6.37-5.967L300.5,316.825a492.511,492.511,0,0,0-11.308-59.467l-.038-.142-27.01-96.07a6,6,0,0,0-5.74-4.376h-.036a6,6,0,0,0-5.756,4.306l-27.33,92.85c-.014.049-.028.1-.041.148A493.072,493.072,0,0,0,210.488,319.2l-16.96,133.821a6.806,6.806,0,0,1-6.141,5.951,6.481,6.481,0,0,1-.657.032H143.95a6.863,6.863,0,0,1-6.86-6.786l.006-.165c0-.065,0-.129,0-.194A3402.5,3402.5,0,0,1,155.671,106.31h6.739a39.514,39.514,0,0,0,39.47-39.47V54.14h3.794a6,6,0,0,0,0-12H161.93V20.88H353.47V42.14H230a6,6,0,0,0,0,12H250.73v73.11a6,6,0,0,0,6,6,26.805,26.805,0,0,0,26.77-26.78V54.14h29.35v12.7a39.514,39.514,0,0,0,39.47,39.47h6.746l.062.638A3403.271,3403.271,0,0,1,374.85,452.2ZM271.5,54.14v52.33a14.8,14.8,0,0,1-8.77,13.5V54.14Z"/><path d="M313.4,273.18a6,6,0,1,0-11.74,2.479c2.781,13.176,5.062,26.687,6.778,40.159a6,6,0,0,0,11.9-1.516C318.585,300.509,316.25,286.673,313.4,273.18Z"/><path d="M305.177,263.583a6,6,0,0,0,4.377-7.27c-.325-1.307-.65-2.6-.985-3.9a6,6,0,1,0-11.619,3c.325,1.262.642,2.525.957,3.8a6,6,0,0,0,7.27,4.377Z"/></svg>
